<?xml version="1.0" encoding="utf-8" standalone="no"?>
<!DOCTYPE svg PUBLIC "-//W3C//DTD SVG 1.1//EN"
  "http://www.w3.org/Graphics/SVG/1.1/DTD/svg11.dtd">
<svg height="576pt" version="1.1" viewBox="0 0 1008 576" width="1008pt" xmlns="http://www.w3.org/2000/svg" xmlns:xlink="http://www.w3.org/1999/xlink">
 <metadata>
  <rdf:RDF xmlns:cc="http://creativecommons.org/ns#" xmlns:dc="http://purl.org/dc/elements/1.1/" xmlns:rdf="http://www.w3.org/1999/02/22-rdf-syntax-ns#">
   <cc:Work>
    <dc:type rdf:resource="http://purl.org/dc/dcmitype/StillImage"/>
    <dc:date>2021-06-11T08:07:45.695760</dc:date>
    <dc:format>image/svg+xml</dc:format>
    <dc:creator>
     <cc:Agent>
      <dc:title>Matplotlib v3.4.2, https://matplotlib.org/</dc:title>
     </cc:Agent>
    </dc:creator>
   </cc:Work>
  </rdf:RDF>
 </metadata>
 <defs>
  <style type="text/css">*{stroke-linecap:butt;stroke-linejoin:round;}</style>
 </defs>
 <g id="figure_1">
  <g id="patch_1">
   <path d="M 0 576 
L 1008 576 
L 1008 0 
L 0 0 
z
" style="fill:#ffffff;"/>
  </g>
  <g id="axes_1">
   <g id="patch_2">
    <path d="M 126 512.64 
L 907.2 512.64 
L 907.2 69.12 
L 126 69.12 
z
" style="fill:#ffffff;"/>
   </g>
   <g id="matplotlib.axis_1">
    <g id="xtick_1">
     <g id="line2d_1">
      <defs>
       <path d="M 0 0 
L 0 3.5 
" id="m6775ce2bc3" style="stroke:#000000;stroke-width:0.8;"/>
      </defs>
      <g>
       <use style="stroke:#000000;stroke-width:0.8;" x="161.509091" xlink:href="#m6775ce2bc3" y="512.64"/>
      </g>
     </g>
     <g id="text_1">
      <!-- $\mathdefault{10^{0}}$ -->
      <g transform="translate(152.709091 527.238438)scale(0.1 -0.1)">
       <defs>
        <path d="M 794 531 
L 1825 531 
L 1825 4091 
L 703 3866 
L 703 4441 
L 1819 4666 
L 2450 4666 
L 2450 531 
L 3481 531 
L 3481 0 
L 794 0 
L 794 531 
z
" id="DejaVuSans-31" transform="scale(0.015625)"/>
        <path d="M 2034 4250 
Q 1547 4250 1301 3770 
Q 1056 3291 1056 2328 
Q 1056 1369 1301 889 
Q 1547 409 2034 409 
Q 2525 409 2770 889 
Q 3016 1369 3016 2328 
Q 3016 3291 2770 3770 
Q 2525 4250 2034 4250 
z
M 2034 4750 
Q 2819 4750 3233 4129 
Q 3647 3509 3647 2328 
Q 3647 1150 3233 529 
Q 2819 -91 2034 -91 
Q 1250 -91 836 529 
Q 422 1150 422 2328 
Q 422 3509 836 4129 
Q 1250 4750 2034 4750 
z
" id="DejaVuSans-30" transform="scale(0.015625)"/>
       </defs>
       <use transform="translate(0 0.765625)" xlink:href="#DejaVuSans-31"/>
       <use transform="translate(63.623047 0.765625)" xlink:href="#DejaVuSans-30"/>
       <use transform="translate(128.203125 39.046875)scale(0.7)" xlink:href="#DejaVuSans-30"/>
      </g>
     </g>
    </g>
    <g id="xtick_2">
     <g id="line2d_2">
      <g>
       <use style="stroke:#000000;stroke-width:0.8;" x="268.945492" xlink:href="#m6775ce2bc3" y="512.64"/>
      </g>
     </g>
     <g id="text_2">
      <!-- $\mathdefault{10^{1}}$ -->
      <g transform="translate(260.145492 527.238438)scale(0.1 -0.1)">
       <use transform="translate(0 0.684375)" xlink:href="#DejaVuSans-31"/>
       <use transform="translate(63.623047 0.684375)" xlink:href="#DejaVuSans-30"/>
       <use transform="translate(128.203125 38.965625)scale(0.7)" xlink:href="#DejaVuSans-31"/>
      </g>
     </g>
    </g>
    <g id="xtick_3">
     <g id="line2d_3">
      <g>
       <use style="stroke:#000000;stroke-width:0.8;" x="376.381893" xlink:href="#m6775ce2bc3" y="512.64"/>
      </g>
     </g>
     <g id="text_3">
      <!-- $\mathdefault{10^{2}}$ -->
      <g transform="translate(367.581893 527.238438)scale(0.1 -0.1)">
       <defs>
        <path d="M 1228 531 
L 3431 531 
L 3431 0 
L 469 0 
L 469 531 
Q 828 903 1448 1529 
Q 2069 2156 2228 2338 
Q 2531 2678 2651 2914 
Q 2772 3150 2772 3378 
Q 2772 3750 2511 3984 
Q 2250 4219 1831 4219 
Q 1534 4219 1204 4116 
Q 875 4013 500 3803 
L 500 4441 
Q 881 4594 1212 4672 
Q 1544 4750 1819 4750 
Q 2544 4750 2975 4387 
Q 3406 4025 3406 3419 
Q 3406 3131 3298 2873 
Q 3191 2616 2906 2266 
Q 2828 2175 2409 1742 
Q 1991 1309 1228 531 
z
" id="DejaVuSans-32" transform="scale(0.015625)"/>
       </defs>
       <use transform="translate(0 0.765625)" xlink:href="#DejaVuSans-31"/>
       <use transform="translate(63.623047 0.765625)" xlink:href="#DejaVuSans-30"/>
       <use transform="translate(128.203125 39.046875)scale(0.7)" xlink:href="#DejaVuSans-32"/>
      </g>
     </g>
    </g>
    <g id="xtick_4">
     <g id="line2d_4">
      <g>
       <use style="stroke:#000000;stroke-width:0.8;" x="483.818294" xlink:href="#m6775ce2bc3" y="512.64"/>
      </g>
     </g>
     <g id="text_4">
      <!-- $\mathdefault{10^{3}}$ -->
      <g transform="translate(475.018294 527.238438)scale(0.1 -0.1)">
       <defs>
        <path d="M 2597 2516 
Q 3050 2419 3304 2112 
Q 3559 1806 3559 1356 
Q 3559 666 3084 287 
Q 2609 -91 1734 -91 
Q 1441 -91 1130 -33 
Q 819 25 488 141 
L 488 750 
Q 750 597 1062 519 
Q 1375 441 1716 441 
Q 2309 441 2620 675 
Q 2931 909 2931 1356 
Q 2931 1769 2642 2001 
Q 2353 2234 1838 2234 
L 1294 2234 
L 1294 2753 
L 1863 2753 
Q 2328 2753 2575 2939 
Q 2822 3125 2822 3475 
Q 2822 3834 2567 4026 
Q 2313 4219 1838 4219 
Q 1578 4219 1281 4162 
Q 984 4106 628 3988 
L 628 4550 
Q 988 4650 1302 4700 
Q 1616 4750 1894 4750 
Q 2613 4750 3031 4423 
Q 3450 4097 3450 3541 
Q 3450 3153 3228 2886 
Q 3006 2619 2597 2516 
z
" id="DejaVuSans-33" transform="scale(0.015625)"/>
       </defs>
       <use transform="translate(0 0.765625)" xlink:href="#DejaVuSans-31"/>
       <use transform="translate(63.623047 0.765625)" xlink:href="#DejaVuSans-30"/>
       <use transform="translate(128.203125 39.046875)scale(0.7)" xlink:href="#DejaVuSans-33"/>
      </g>
     </g>
    </g>
    <g id="xtick_5">
     <g id="line2d_5">
      <g>
       <use style="stroke:#000000;stroke-width:0.8;" x="591.254695" xlink:href="#m6775ce2bc3" y="512.64"/>
      </g>
     </g>
     <g id="text_5">
      <!-- $\mathdefault{10^{4}}$ -->
      <g transform="translate(582.454695 527.238438)scale(0.1 -0.1)">
       <defs>
        <path d="M 2419 4116 
L 825 1625 
L 2419 1625 
L 2419 4116 
z
M 2253 4666 
L 3047 4666 
L 3047 1625 
L 3713 1625 
L 3713 1100 
L 3047 1100 
L 3047 0 
L 2419 0 
L 2419 1100 
L 313 1100 
L 313 1709 
L 2253 4666 
z
" id="DejaVuSans-34" transform="scale(0.015625)"/>
       </defs>
       <use transform="translate(0 0.684375)" xlink:href="#DejaVuSans-31"/>
       <use transform="translate(63.623047 0.684375)" xlink:href="#DejaVuSans-30"/>
       <use transform="translate(128.203125 38.965625)scale(0.7)" xlink:href="#DejaVuSans-34"/>
      </g>
     </g>
    </g>
    <g id="xtick_6">
     <g id="line2d_6">
      <g>
       <use style="stroke:#000000;stroke-width:0.8;" x="698.691096" xlink:href="#m6775ce2bc3" y="512.64"/>
      </g>
     </g>
     <g id="text_6">
      <!-- $\mathdefault{10^{5}}$ -->
      <g transform="translate(689.891096 527.238438)scale(0.1 -0.1)">
       <defs>
        <path d="M 691 4666 
L 3169 4666 
L 3169 4134 
L 1269 4134 
L 1269 2991 
Q 1406 3038 1543 3061 
Q 1681 3084 1819 3084 
Q 2600 3084 3056 2656 
Q 3513 2228 3513 1497 
Q 3513 744 3044 326 
Q 2575 -91 1722 -91 
Q 1428 -91 1123 -41 
Q 819 9 494 109 
L 494 744 
Q 775 591 1075 516 
Q 1375 441 1709 441 
Q 2250 441 2565 725 
Q 2881 1009 2881 1497 
Q 2881 1984 2565 2268 
Q 2250 2553 1709 2553 
Q 1456 2553 1204 2497 
Q 953 2441 691 2322 
L 691 4666 
z
" id="DejaVuSans-35" transform="scale(0.015625)"/>
       </defs>
       <use transform="translate(0 0.684375)" xlink:href="#DejaVuSans-31"/>
       <use transform="translate(63.623047 0.684375)" xlink:href="#DejaVuSans-30"/>
       <use transform="translate(128.203125 38.965625)scale(0.7)" xlink:href="#DejaVuSans-35"/>
      </g>
     </g>
    </g>
    <g id="xtick_7">
     <g id="line2d_7">
      <g>
       <use style="stroke:#000000;stroke-width:0.8;" x="806.127497" xlink:href="#m6775ce2bc3" y="512.64"/>
      </g>
     </g>
     <g id="text_7">
      <!-- $\mathdefault{10^{6}}$ -->
      <g transform="translate(797.327497 527.238438)scale(0.1 -0.1)">
       <defs>
        <path d="M 2113 2584 
Q 1688 2584 1439 2293 
Q 1191 2003 1191 1497 
Q 1191 994 1439 701 
Q 1688 409 2113 409 
Q 2538 409 2786 701 
Q 3034 994 3034 1497 
Q 3034 2003 2786 2293 
Q 2538 2584 2113 2584 
z
M 3366 4563 
L 3366 3988 
Q 3128 4100 2886 4159 
Q 2644 4219 2406 4219 
Q 1781 4219 1451 3797 
Q 1122 3375 1075 2522 
Q 1259 2794 1537 2939 
Q 1816 3084 2150 3084 
Q 2853 3084 3261 2657 
Q 3669 2231 3669 1497 
Q 3669 778 3244 343 
Q 2819 -91 2113 -91 
Q 1303 -91 875 529 
Q 447 1150 447 2328 
Q 447 3434 972 4092 
Q 1497 4750 2381 4750 
Q 2619 4750 2861 4703 
Q 3103 4656 3366 4563 
z
" id="DejaVuSans-36" transform="scale(0.015625)"/>
       </defs>
       <use transform="translate(0 0.765625)" xlink:href="#DejaVuSans-31"/>
       <use transform="translate(63.623047 0.765625)" xlink:href="#DejaVuSans-30"/>
       <use transform="translate(128.203125 39.046875)scale(0.7)" xlink:href="#DejaVuSans-36"/>
      </g>
     </g>
    </g>
    <g id="xtick_8">
     <g id="line2d_8">
      <defs>
       <path d="M 0 0 
L 0 2 
" id="mb1db1edf85" style="stroke:#000000;stroke-width:0.6;"/>
      </defs>
      <g>
       <use style="stroke:#000000;stroke-width:0.6;" x="129.167512" xlink:href="#mb1db1edf85" y="512.64"/>
      </g>
     </g>
    </g>
    <g id="xtick_9">
     <g id="line2d_9">
      <g>
       <use style="stroke:#000000;stroke-width:0.6;" x="137.67446" xlink:href="#mb1db1edf85" y="512.64"/>
      </g>
     </g>
    </g>
    <g id="xtick_10">
     <g id="line2d_10">
      <g>
       <use style="stroke:#000000;stroke-width:0.6;" x="144.866982" xlink:href="#mb1db1edf85" y="512.64"/>
      </g>
     </g>
    </g>
    <g id="xtick_11">
     <g id="line2d_11">
      <g>
       <use style="stroke:#000000;stroke-width:0.6;" x="151.097428" xlink:href="#mb1db1edf85" y="512.64"/>
      </g>
     </g>
    </g>
    <g id="xtick_12">
     <g id="line2d_12">
      <g>
       <use style="stroke:#000000;stroke-width:0.6;" x="156.593071" xlink:href="#mb1db1edf85" y="512.64"/>
      </g>
     </g>
    </g>
    <g id="xtick_13">
     <g id="line2d_13">
      <g>
       <use style="stroke:#000000;stroke-width:0.6;" x="193.85067" xlink:href="#mb1db1edf85" y="512.64"/>
      </g>
     </g>
    </g>
    <g id="xtick_14">
     <g id="line2d_14">
      <g>
       <use style="stroke:#000000;stroke-width:0.6;" x="212.769281" xlink:href="#mb1db1edf85" y="512.64"/>
      </g>
     </g>
    </g>
    <g id="xtick_15">
     <g id="line2d_15">
      <g>
       <use style="stroke:#000000;stroke-width:0.6;" x="226.19225" xlink:href="#mb1db1edf85" y="512.64"/>
      </g>
     </g>
    </g>
    <g id="xtick_16">
     <g id="line2d_16">
      <g>
       <use style="stroke:#000000;stroke-width:0.6;" x="236.603913" xlink:href="#mb1db1edf85" y="512.64"/>
      </g>
     </g>
    </g>
    <g id="xtick_17">
     <g id="line2d_17">
      <g>
       <use style="stroke:#000000;stroke-width:0.6;" x="245.110861" xlink:href="#mb1db1edf85" y="512.64"/>
      </g>
     </g>
    </g>
    <g id="xtick_18">
     <g id="line2d_18">
      <g>
       <use style="stroke:#000000;stroke-width:0.6;" x="252.303383" xlink:href="#mb1db1edf85" y="512.64"/>
      </g>
     </g>
    </g>
    <g id="xtick_19">
     <g id="line2d_19">
      <g>
       <use style="stroke:#000000;stroke-width:0.6;" x="258.533829" xlink:href="#mb1db1edf85" y="512.64"/>
      </g>
     </g>
    </g>
    <g id="xtick_20">
     <g id="line2d_20">
      <g>
       <use style="stroke:#000000;stroke-width:0.6;" x="264.029472" xlink:href="#mb1db1edf85" y="512.64"/>
      </g>
     </g>
    </g>
    <g id="xtick_21">
     <g id="line2d_21">
      <g>
       <use style="stroke:#000000;stroke-width:0.6;" x="301.287071" xlink:href="#mb1db1edf85" y="512.64"/>
      </g>
     </g>
    </g>
    <g id="xtick_22">
     <g id="line2d_22">
      <g>
       <use style="stroke:#000000;stroke-width:0.6;" x="320.205682" xlink:href="#mb1db1edf85" y="512.64"/>
      </g>
     </g>
    </g>
    <g id="xtick_23">
     <g id="line2d_23">
      <g>
       <use style="stroke:#000000;stroke-width:0.6;" x="333.62865" xlink:href="#mb1db1edf85" y="512.64"/>
      </g>
     </g>
    </g>
    <g id="xtick_24">
     <g id="line2d_24">
      <g>
       <use style="stroke:#000000;stroke-width:0.6;" x="344.040313" xlink:href="#mb1db1edf85" y="512.64"/>
      </g>
     </g>
    </g>
    <g id="xtick_25">
     <g id="line2d_25">
      <g>
       <use style="stroke:#000000;stroke-width:0.6;" x="352.547262" xlink:href="#mb1db1edf85" y="512.64"/>
      </g>
     </g>
    </g>
    <g id="xtick_26">
     <g id="line2d_26">
      <g>
       <use style="stroke:#000000;stroke-width:0.6;" x="359.739784" xlink:href="#mb1db1edf85" y="512.64"/>
      </g>
     </g>
    </g>
    <g id="xtick_27">
     <g id="line2d_27">
      <g>
       <use style="stroke:#000000;stroke-width:0.6;" x="365.97023" xlink:href="#mb1db1edf85" y="512.64"/>
      </g>
     </g>
    </g>
    <g id="xtick_28">
     <g id="line2d_28">
      <g>
       <use style="stroke:#000000;stroke-width:0.6;" x="371.465873" xlink:href="#mb1db1edf85" y="512.64"/>
      </g>
     </g>
    </g>
    <g id="xtick_29">
     <g id="line2d_29">
      <g>
       <use style="stroke:#000000;stroke-width:0.6;" x="408.723472" xlink:href="#mb1db1edf85" y="512.64"/>
      </g>
     </g>
    </g>
    <g id="xtick_30">
     <g id="line2d_30">
      <g>
       <use style="stroke:#000000;stroke-width:0.6;" x="427.642083" xlink:href="#mb1db1edf85" y="512.64"/>
      </g>
     </g>
    </g>
    <g id="xtick_31">
     <g id="line2d_31">
      <g>
       <use style="stroke:#000000;stroke-width:0.6;" x="441.065051" xlink:href="#mb1db1edf85" y="512.64"/>
      </g>
     </g>
    </g>
    <g id="xtick_32">
     <g id="line2d_32">
      <g>
       <use style="stroke:#000000;stroke-width:0.6;" x="451.476714" xlink:href="#mb1db1edf85" y="512.64"/>
      </g>
     </g>
    </g>
    <g id="xtick_33">
     <g id="line2d_33">
      <g>
       <use style="stroke:#000000;stroke-width:0.6;" x="459.983663" xlink:href="#mb1db1edf85" y="512.64"/>
      </g>
     </g>
    </g>
    <g id="xtick_34">
     <g id="line2d_34">
      <g>
       <use style="stroke:#000000;stroke-width:0.6;" x="467.176185" xlink:href="#mb1db1edf85" y="512.64"/>
      </g>
     </g>
    </g>
    <g id="xtick_35">
     <g id="line2d_35">
      <g>
       <use style="stroke:#000000;stroke-width:0.6;" x="473.406631" xlink:href="#mb1db1edf85" y="512.64"/>
      </g>
     </g>
    </g>
    <g id="xtick_36">
     <g id="line2d_36">
      <g>
       <use style="stroke:#000000;stroke-width:0.6;" x="478.902274" xlink:href="#mb1db1edf85" y="512.64"/>
      </g>
     </g>
    </g>
    <g id="xtick_37">
     <g id="line2d_37">
      <g>
       <use style="stroke:#000000;stroke-width:0.6;" x="516.159873" xlink:href="#mb1db1edf85" y="512.64"/>
      </g>
     </g>
    </g>
    <g id="xtick_38">
     <g id="line2d_38">
      <g>
       <use style="stroke:#000000;stroke-width:0.6;" x="535.078484" xlink:href="#mb1db1edf85" y="512.64"/>
      </g>
     </g>
    </g>
    <g id="xtick_39">
     <g id="line2d_39">
      <g>
       <use style="stroke:#000000;stroke-width:0.6;" x="548.501452" xlink:href="#mb1db1edf85" y="512.64"/>
      </g>
     </g>
    </g>
    <g id="xtick_40">
     <g id="line2d_40">
      <g>
       <use style="stroke:#000000;stroke-width:0.6;" x="558.913115" xlink:href="#mb1db1edf85" y="512.64"/>
      </g>
     </g>
    </g>
    <g id="xtick_41">
     <g id="line2d_41">
      <g>
       <use style="stroke:#000000;stroke-width:0.6;" x="567.420063" xlink:href="#mb1db1edf85" y="512.64"/>
      </g>
     </g>
    </g>
    <g id="xtick_42">
     <g id="line2d_42">
      <g>
       <use style="stroke:#000000;stroke-width:0.6;" x="574.612586" xlink:href="#mb1db1edf85" y="512.64"/>
      </g>
     </g>
    </g>
    <g id="xtick_43">
     <g id="line2d_43">
      <g>
       <use style="stroke:#000000;stroke-width:0.6;" x="580.843032" xlink:href="#mb1db1edf85" y="512.64"/>
      </g>
     </g>
    </g>
    <g id="xtick_44">
     <g id="line2d_44">
      <g>
       <use style="stroke:#000000;stroke-width:0.6;" x="586.338675" xlink:href="#mb1db1edf85" y="512.64"/>
      </g>
     </g>
    </g>
    <g id="xtick_45">
     <g id="line2d_45">
      <g>
       <use style="stroke:#000000;stroke-width:0.6;" x="623.596274" xlink:href="#mb1db1edf85" y="512.64"/>
      </g>
     </g>
    </g>
    <g id="xtick_46">
     <g id="line2d_46">
      <g>
       <use style="stroke:#000000;stroke-width:0.6;" x="642.514885" xlink:href="#mb1db1edf85" y="512.64"/>
      </g>
     </g>
    </g>
    <g id="xtick_47">
     <g id="line2d_47">
      <g>
       <use style="stroke:#000000;stroke-width:0.6;" x="655.937853" xlink:href="#mb1db1edf85" y="512.64"/>
      </g>
     </g>
    </g>
    <g id="xtick_48">
     <g id="line2d_48">
      <g>
       <use style="stroke:#000000;stroke-width:0.6;" x="666.349516" xlink:href="#mb1db1edf85" y="512.64"/>
      </g>
     </g>
    </g>
    <g id="xtick_49">
     <g id="line2d_49">
      <g>
       <use style="stroke:#000000;stroke-width:0.6;" x="674.856464" xlink:href="#mb1db1edf85" y="512.64"/>
      </g>
     </g>
    </g>
    <g id="xtick_50">
     <g id="line2d_50">
      <g>
       <use style="stroke:#000000;stroke-width:0.6;" x="682.048987" xlink:href="#mb1db1edf85" y="512.64"/>
      </g>
     </g>
    </g>
    <g id="xtick_51">
     <g id="line2d_51">
      <g>
       <use style="stroke:#000000;stroke-width:0.6;" x="688.279433" xlink:href="#mb1db1edf85" y="512.64"/>
      </g>
     </g>
    </g>
    <g id="xtick_52">
     <g id="line2d_52">
      <g>
       <use style="stroke:#000000;stroke-width:0.6;" x="693.775076" xlink:href="#mb1db1edf85" y="512.64"/>
      </g>
     </g>
    </g>
    <g id="xtick_53">
     <g id="line2d_53">
      <g>
       <use style="stroke:#000000;stroke-width:0.6;" x="731.032675" xlink:href="#mb1db1edf85" y="512.64"/>
      </g>
     </g>
    </g>
    <g id="xtick_54">
     <g id="line2d_54">
      <g>
       <use style="stroke:#000000;stroke-width:0.6;" x="749.951286" xlink:href="#mb1db1edf85" y="512.64"/>
      </g>
     </g>
    </g>
    <g id="xtick_55">
     <g id="line2d_55">
      <g>
       <use style="stroke:#000000;stroke-width:0.6;" x="763.374254" xlink:href="#mb1db1edf85" y="512.64"/>
      </g>
     </g>
    </g>
    <g id="xtick_56">
     <g id="line2d_56">
      <g>
       <use style="stroke:#000000;stroke-width:0.6;" x="773.785917" xlink:href="#mb1db1edf85" y="512.64"/>
      </g>
     </g>
    </g>
    <g id="xtick_57">
     <g id="line2d_57">
      <g>
       <use style="stroke:#000000;stroke-width:0.6;" x="782.292865" xlink:href="#mb1db1edf85" y="512.64"/>
      </g>
     </g>
    </g>
    <g id="xtick_58">
     <g id="line2d_58">
      <g>
       <use style="stroke:#000000;stroke-width:0.6;" x="789.485387" xlink:href="#mb1db1edf85" y="512.64"/>
      </g>
     </g>
    </g>
    <g id="xtick_59">
     <g id="line2d_59">
      <g>
       <use style="stroke:#000000;stroke-width:0.6;" x="795.715834" xlink:href="#mb1db1edf85" y="512.64"/>
      </g>
     </g>
    </g>
    <g id="xtick_60">
     <g id="line2d_60">
      <g>
       <use style="stroke:#000000;stroke-width:0.6;" x="801.211476" xlink:href="#mb1db1edf85" y="512.64"/>
      </g>
     </g>
    </g>
    <g id="xtick_61">
     <g id="line2d_61">
      <g>
       <use style="stroke:#000000;stroke-width:0.6;" x="838.469076" xlink:href="#mb1db1edf85" y="512.64"/>
      </g>
     </g>
    </g>
    <g id="xtick_62">
     <g id="line2d_62">
      <g>
       <use style="stroke:#000000;stroke-width:0.6;" x="857.387687" xlink:href="#mb1db1edf85" y="512.64"/>
      </g>
     </g>
    </g>
    <g id="xtick_63">
     <g id="line2d_63">
      <g>
       <use style="stroke:#000000;stroke-width:0.6;" x="870.810655" xlink:href="#mb1db1edf85" y="512.64"/>
      </g>
     </g>
    </g>
    <g id="xtick_64">
     <g id="line2d_64">
      <g>
       <use style="stroke:#000000;stroke-width:0.6;" x="881.222318" xlink:href="#mb1db1edf85" y="512.64"/>
      </g>
     </g>
    </g>
    <g id="xtick_65">
     <g id="line2d_65">
      <g>
       <use style="stroke:#000000;stroke-width:0.6;" x="889.729266" xlink:href="#mb1db1edf85" y="512.64"/>
      </g>
     </g>
    </g>
    <g id="xtick_66">
     <g id="line2d_66">
      <g>
       <use style="stroke:#000000;stroke-width:0.6;" x="896.921788" xlink:href="#mb1db1edf85" y="512.64"/>
      </g>
     </g>
    </g>
    <g id="xtick_67">
     <g id="line2d_67">
      <g>
       <use style="stroke:#000000;stroke-width:0.6;" x="903.152234" xlink:href="#mb1db1edf85" y="512.64"/>
      </g>
     </g>
    </g>
    <g id="text_8">
     <!-- degree -->
     <g transform="translate(499.078906 540.916563)scale(0.1 -0.1)">
      <defs>
       <path d="M 2906 2969 
L 2906 4863 
L 3481 4863 
L 3481 0 
L 2906 0 
L 2906 525 
Q 2725 213 2448 61 
Q 2172 -91 1784 -91 
Q 1150 -91 751 415 
Q 353 922 353 1747 
Q 353 2572 751 3078 
Q 1150 3584 1784 3584 
Q 2172 3584 2448 3432 
Q 2725 3281 2906 2969 
z
M 947 1747 
Q 947 1113 1208 752 
Q 1469 391 1925 391 
Q 2381 391 2643 752 
Q 2906 1113 2906 1747 
Q 2906 2381 2643 2742 
Q 2381 3103 1925 3103 
Q 1469 3103 1208 2742 
Q 947 2381 947 1747 
z
" id="DejaVuSans-64" transform="scale(0.015625)"/>
       <path d="M 3597 1894 
L 3597 1613 
L 953 1613 
Q 991 1019 1311 708 
Q 1631 397 2203 397 
Q 2534 397 2845 478 
Q 3156 559 3463 722 
L 3463 178 
Q 3153 47 2828 -22 
Q 2503 -91 2169 -91 
Q 1331 -91 842 396 
Q 353 884 353 1716 
Q 353 2575 817 3079 
Q 1281 3584 2069 3584 
Q 2775 3584 3186 3129 
Q 3597 2675 3597 1894 
z
M 3022 2063 
Q 3016 2534 2758 2815 
Q 2500 3097 2075 3097 
Q 1594 3097 1305 2825 
Q 1016 2553 972 2059 
L 3022 2063 
z
" id="DejaVuSans-65" transform="scale(0.015625)"/>
       <path d="M 2906 1791 
Q 2906 2416 2648 2759 
Q 2391 3103 1925 3103 
Q 1463 3103 1205 2759 
Q 947 2416 947 1791 
Q 947 1169 1205 825 
Q 1463 481 1925 481 
Q 2391 481 2648 825 
Q 2906 1169 2906 1791 
z
M 3481 434 
Q 3481 -459 3084 -895 
Q 2688 -1331 1869 -1331 
Q 1566 -1331 1297 -1286 
Q 1028 -1241 775 -1147 
L 775 -588 
Q 1028 -725 1275 -790 
Q 1522 -856 1778 -856 
Q 2344 -856 2625 -561 
Q 2906 -266 2906 331 
L 2906 616 
Q 2728 306 2450 153 
Q 2172 0 1784 0 
Q 1141 0 747 490 
Q 353 981 353 1791 
Q 353 2603 747 3093 
Q 1141 3584 1784 3584 
Q 2172 3584 2450 3431 
Q 2728 3278 2906 2969 
L 2906 3500 
L 3481 3500 
L 3481 434 
z
" id="DejaVuSans-67" transform="scale(0.015625)"/>
       <path d="M 2631 2963 
Q 2534 3019 2420 3045 
Q 2306 3072 2169 3072 
Q 1681 3072 1420 2755 
Q 1159 2438 1159 1844 
L 1159 0 
L 581 0 
L 581 3500 
L 1159 3500 
L 1159 2956 
Q 1341 3275 1631 3429 
Q 1922 3584 2338 3584 
Q 2397 3584 2469 3576 
Q 2541 3569 2628 3553 
L 2631 2963 
z
" id="DejaVuSans-72" transform="scale(0.015625)"/>
      </defs>
      <use xlink:href="#DejaVuSans-64"/>
      <use x="63.476562" xlink:href="#DejaVuSans-65"/>
      <use x="125" xlink:href="#DejaVuSans-67"/>
      <use x="188.476562" xlink:href="#DejaVuSans-72"/>
      <use x="227.339844" xlink:href="#DejaVuSans-65"/>
      <use x="288.863281" xlink:href="#DejaVuSans-65"/>
     </g>
    </g>
   </g>
   <g id="matplotlib.axis_2">
    <g id="ytick_1">
     <g id="line2d_68">
      <defs>
       <path d="M 0 0 
L -3.5 0 
" id="mb47e7768e1" style="stroke:#000000;stroke-width:0.8;"/>
      </defs>
      <g>
       <use style="stroke:#000000;stroke-width:0.8;" x="126" xlink:href="#mb47e7768e1" y="492.48"/>
      </g>
     </g>
     <g id="text_9">
      <!-- $\mathdefault{10^{0}}$ -->
      <g transform="translate(101.4 496.279219)scale(0.1 -0.1)">
       <use transform="translate(0 0.765625)" xlink:href="#DejaVuSans-31"/>
       <use transform="translate(63.623047 0.765625)" xlink:href="#DejaVuSans-30"/>
       <use transform="translate(128.203125 39.046875)scale(0.7)" xlink:href="#DejaVuSans-30"/>
      </g>
     </g>
    </g>
    <g id="ytick_2">
     <g id="line2d_69">
      <g>
       <use style="stroke:#000000;stroke-width:0.8;" x="126" xlink:href="#mb47e7768e1" y="383.479242"/>
      </g>
     </g>
     <g id="text_10">
      <!-- $\mathdefault{10^{1}}$ -->
      <g transform="translate(101.4 387.278461)scale(0.1 -0.1)">
       <use transform="translate(0 0.684375)" xlink:href="#DejaVuSans-31"/>
       <use transform="translate(63.623047 0.684375)" xlink:href="#DejaVuSans-30"/>
       <use transform="translate(128.203125 38.965625)scale(0.7)" xlink:href="#DejaVuSans-31"/>
      </g>
     </g>
    </g>
    <g id="ytick_3">
     <g id="line2d_70">
      <g>
       <use style="stroke:#000000;stroke-width:0.8;" x="126" xlink:href="#mb47e7768e1" y="274.478485"/>
      </g>
     </g>
     <g id="text_11">
      <!-- $\mathdefault{10^{2}}$ -->
      <g transform="translate(101.4 278.277703)scale(0.1 -0.1)">
       <use transform="translate(0 0.765625)" xlink:href="#DejaVuSans-31"/>
       <use transform="translate(63.623047 0.765625)" xlink:href="#DejaVuSans-30"/>
       <use transform="translate(128.203125 39.046875)scale(0.7)" xlink:href="#DejaVuSans-32"/>
      </g>
     </g>
    </g>
    <g id="ytick_4">
     <g id="line2d_71">
      <g>
       <use style="stroke:#000000;stroke-width:0.8;" x="126" xlink:href="#mb47e7768e1" y="165.477727"/>
      </g>
     </g>
     <g id="text_12">
      <!-- $\mathdefault{10^{3}}$ -->
      <g transform="translate(101.4 169.276946)scale(0.1 -0.1)">
       <use transform="translate(0 0.765625)" xlink:href="#DejaVuSans-31"/>
       <use transform="translate(63.623047 0.765625)" xlink:href="#DejaVuSans-30"/>
       <use transform="translate(128.203125 39.046875)scale(0.7)" xlink:href="#DejaVuSans-33"/>
      </g>
     </g>
    </g>
    <g id="ytick_5">
     <g id="line2d_72">
      <defs>
       <path d="M 0 0 
L -2 0 
" id="mfad6b4a2e2" style="stroke:#000000;stroke-width:0.6;"/>
      </defs>
      <g>
       <use style="stroke:#000000;stroke-width:0.6;" x="126" xlink:href="#mfad6b4a2e2" y="509.364431"/>
      </g>
     </g>
    </g>
    <g id="ytick_6">
     <g id="line2d_73">
      <g>
       <use style="stroke:#000000;stroke-width:0.6;" x="126" xlink:href="#mfad6b4a2e2" y="503.043265"/>
      </g>
     </g>
    </g>
    <g id="ytick_7">
     <g id="line2d_74">
      <g>
       <use style="stroke:#000000;stroke-width:0.6;" x="126" xlink:href="#mfad6b4a2e2" y="497.467601"/>
      </g>
     </g>
    </g>
    <g id="ytick_8">
     <g id="line2d_75">
      <g>
       <use style="stroke:#000000;stroke-width:0.6;" x="126" xlink:href="#mfad6b4a2e2" y="459.667502"/>
      </g>
     </g>
    </g>
    <g id="ytick_9">
     <g id="line2d_76">
      <g>
       <use style="stroke:#000000;stroke-width:0.6;" x="126" xlink:href="#mfad6b4a2e2" y="440.473422"/>
      </g>
     </g>
    </g>
    <g id="ytick_10">
     <g id="line2d_77">
      <g>
       <use style="stroke:#000000;stroke-width:0.6;" x="126" xlink:href="#mfad6b4a2e2" y="426.855005"/>
      </g>
     </g>
    </g>
    <g id="ytick_11">
     <g id="line2d_78">
      <g>
       <use style="stroke:#000000;stroke-width:0.6;" x="126" xlink:href="#mfad6b4a2e2" y="416.29174"/>
      </g>
     </g>
    </g>
    <g id="ytick_12">
     <g id="line2d_79">
      <g>
       <use style="stroke:#000000;stroke-width:0.6;" x="126" xlink:href="#mfad6b4a2e2" y="407.660924"/>
      </g>
     </g>
    </g>
    <g id="ytick_13">
     <g id="line2d_80">
      <g>
       <use style="stroke:#000000;stroke-width:0.6;" x="126" xlink:href="#mfad6b4a2e2" y="400.363673"/>
      </g>
     </g>
    </g>
    <g id="ytick_14">
     <g id="line2d_81">
      <g>
       <use style="stroke:#000000;stroke-width:0.6;" x="126" xlink:href="#mfad6b4a2e2" y="394.042507"/>
      </g>
     </g>
    </g>
    <g id="ytick_15">
     <g id="line2d_82">
      <g>
       <use style="stroke:#000000;stroke-width:0.6;" x="126" xlink:href="#mfad6b4a2e2" y="388.466843"/>
      </g>
     </g>
    </g>
    <g id="ytick_16">
     <g id="line2d_83">
      <g>
       <use style="stroke:#000000;stroke-width:0.6;" x="126" xlink:href="#mfad6b4a2e2" y="350.666745"/>
      </g>
     </g>
    </g>
    <g id="ytick_17">
     <g id="line2d_84">
      <g>
       <use style="stroke:#000000;stroke-width:0.6;" x="126" xlink:href="#mfad6b4a2e2" y="331.472664"/>
      </g>
     </g>
    </g>
    <g id="ytick_18">
     <g id="line2d_85">
      <g>
       <use style="stroke:#000000;stroke-width:0.6;" x="126" xlink:href="#mfad6b4a2e2" y="317.854247"/>
      </g>
     </g>
    </g>
    <g id="ytick_19">
     <g id="line2d_86">
      <g>
       <use style="stroke:#000000;stroke-width:0.6;" x="126" xlink:href="#mfad6b4a2e2" y="307.290982"/>
      </g>
     </g>
    </g>
    <g id="ytick_20">
     <g id="line2d_87">
      <g>
       <use style="stroke:#000000;stroke-width:0.6;" x="126" xlink:href="#mfad6b4a2e2" y="298.660166"/>
      </g>
     </g>
    </g>
    <g id="ytick_21">
     <g id="line2d_88">
      <g>
       <use style="stroke:#000000;stroke-width:0.6;" x="126" xlink:href="#mfad6b4a2e2" y="291.362916"/>
      </g>
     </g>
    </g>
    <g id="ytick_22">
     <g id="line2d_89">
      <g>
       <use style="stroke:#000000;stroke-width:0.6;" x="126" xlink:href="#mfad6b4a2e2" y="285.041749"/>
      </g>
     </g>
    </g>
    <g id="ytick_23">
     <g id="line2d_90">
      <g>
       <use style="stroke:#000000;stroke-width:0.6;" x="126" xlink:href="#mfad6b4a2e2" y="279.466086"/>
      </g>
     </g>
    </g>
    <g id="ytick_24">
     <g id="line2d_91">
      <g>
       <use style="stroke:#000000;stroke-width:0.6;" x="126" xlink:href="#mfad6b4a2e2" y="241.665987"/>
      </g>
     </g>
    </g>
    <g id="ytick_25">
     <g id="line2d_92">
      <g>
       <use style="stroke:#000000;stroke-width:0.6;" x="126" xlink:href="#mfad6b4a2e2" y="222.471906"/>
      </g>
     </g>
    </g>
    <g id="ytick_26">
     <g id="line2d_93">
      <g>
       <use style="stroke:#000000;stroke-width:0.6;" x="126" xlink:href="#mfad6b4a2e2" y="208.853489"/>
      </g>
     </g>
    </g>
    <g id="ytick_27">
     <g id="line2d_94">
      <g>
       <use style="stroke:#000000;stroke-width:0.6;" x="126" xlink:href="#mfad6b4a2e2" y="198.290224"/>
      </g>
     </g>
    </g>
    <g id="ytick_28">
     <g id="line2d_95">
      <g>
       <use style="stroke:#000000;stroke-width:0.6;" x="126" xlink:href="#mfad6b4a2e2" y="189.659409"/>
      </g>
     </g>
    </g>
    <g id="ytick_29">
     <g id="line2d_96">
      <g>
       <use style="stroke:#000000;stroke-width:0.6;" x="126" xlink:href="#mfad6b4a2e2" y="182.362158"/>
      </g>
     </g>
    </g>
    <g id="ytick_30">
     <g id="line2d_97">
      <g>
       <use style="stroke:#000000;stroke-width:0.6;" x="126" xlink:href="#mfad6b4a2e2" y="176.040992"/>
      </g>
     </g>
    </g>
    <g id="ytick_31">
     <g id="line2d_98">
      <g>
       <use style="stroke:#000000;stroke-width:0.6;" x="126" xlink:href="#mfad6b4a2e2" y="170.465328"/>
      </g>
     </g>
    </g>
    <g id="ytick_32">
     <g id="line2d_99">
      <g>
       <use style="stroke:#000000;stroke-width:0.6;" x="126" xlink:href="#mfad6b4a2e2" y="132.665229"/>
      </g>
     </g>
    </g>
    <g id="ytick_33">
     <g id="line2d_100">
      <g>
       <use style="stroke:#000000;stroke-width:0.6;" x="126" xlink:href="#mfad6b4a2e2" y="113.471149"/>
      </g>
     </g>
    </g>
    <g id="ytick_34">
     <g id="line2d_101">
      <g>
       <use style="stroke:#000000;stroke-width:0.6;" x="126" xlink:href="#mfad6b4a2e2" y="99.852732"/>
      </g>
     </g>
    </g>
    <g id="ytick_35">
     <g id="line2d_102">
      <g>
       <use style="stroke:#000000;stroke-width:0.6;" x="126" xlink:href="#mfad6b4a2e2" y="89.289467"/>
      </g>
     </g>
    </g>
    <g id="ytick_36">
     <g id="line2d_103">
      <g>
       <use style="stroke:#000000;stroke-width:0.6;" x="126" xlink:href="#mfad6b4a2e2" y="80.658651"/>
      </g>
     </g>
    </g>
    <g id="ytick_37">
     <g id="line2d_104">
      <g>
       <use style="stroke:#000000;stroke-width:0.6;" x="126" xlink:href="#mfad6b4a2e2" y="73.3614"/>
      </g>
     </g>
    </g>
    <g id="text_13">
     <!-- number of nodes -->
     <g transform="translate(95.320312 333.475312)rotate(-90)scale(0.1 -0.1)">
      <defs>
       <path d="M 3513 2113 
L 3513 0 
L 2938 0 
L 2938 2094 
Q 2938 2591 2744 2837 
Q 2550 3084 2163 3084 
Q 1697 3084 1428 2787 
Q 1159 2491 1159 1978 
L 1159 0 
L 581 0 
L 581 3500 
L 1159 3500 
L 1159 2956 
Q 1366 3272 1645 3428 
Q 1925 3584 2291 3584 
Q 2894 3584 3203 3211 
Q 3513 2838 3513 2113 
z
" id="DejaVuSans-6e" transform="scale(0.015625)"/>
       <path d="M 544 1381 
L 544 3500 
L 1119 3500 
L 1119 1403 
Q 1119 906 1312 657 
Q 1506 409 1894 409 
Q 2359 409 2629 706 
Q 2900 1003 2900 1516 
L 2900 3500 
L 3475 3500 
L 3475 0 
L 2900 0 
L 2900 538 
Q 2691 219 2414 64 
Q 2138 -91 1772 -91 
Q 1169 -91 856 284 
Q 544 659 544 1381 
z
M 1991 3584 
L 1991 3584 
z
" id="DejaVuSans-75" transform="scale(0.015625)"/>
       <path d="M 3328 2828 
Q 3544 3216 3844 3400 
Q 4144 3584 4550 3584 
Q 5097 3584 5394 3201 
Q 5691 2819 5691 2113 
L 5691 0 
L 5113 0 
L 5113 2094 
Q 5113 2597 4934 2840 
Q 4756 3084 4391 3084 
Q 3944 3084 3684 2787 
Q 3425 2491 3425 1978 
L 3425 0 
L 2847 0 
L 2847 2094 
Q 2847 2600 2669 2842 
Q 2491 3084 2119 3084 
Q 1678 3084 1418 2786 
Q 1159 2488 1159 1978 
L 1159 0 
L 581 0 
L 581 3500 
L 1159 3500 
L 1159 2956 
Q 1356 3278 1631 3431 
Q 1906 3584 2284 3584 
Q 2666 3584 2933 3390 
Q 3200 3197 3328 2828 
z
" id="DejaVuSans-6d" transform="scale(0.015625)"/>
       <path d="M 3116 1747 
Q 3116 2381 2855 2742 
Q 2594 3103 2138 3103 
Q 1681 3103 1420 2742 
Q 1159 2381 1159 1747 
Q 1159 1113 1420 752 
Q 1681 391 2138 391 
Q 2594 391 2855 752 
Q 3116 1113 3116 1747 
z
M 1159 2969 
Q 1341 3281 1617 3432 
Q 1894 3584 2278 3584 
Q 2916 3584 3314 3078 
Q 3713 2572 3713 1747 
Q 3713 922 3314 415 
Q 2916 -91 2278 -91 
Q 1894 -91 1617 61 
Q 1341 213 1159 525 
L 1159 0 
L 581 0 
L 581 4863 
L 1159 4863 
L 1159 2969 
z
" id="DejaVuSans-62" transform="scale(0.015625)"/>
       <path id="DejaVuSans-20" transform="scale(0.015625)"/>
       <path d="M 1959 3097 
Q 1497 3097 1228 2736 
Q 959 2375 959 1747 
Q 959 1119 1226 758 
Q 1494 397 1959 397 
Q 2419 397 2687 759 
Q 2956 1122 2956 1747 
Q 2956 2369 2687 2733 
Q 2419 3097 1959 3097 
z
M 1959 3584 
Q 2709 3584 3137 3096 
Q 3566 2609 3566 1747 
Q 3566 888 3137 398 
Q 2709 -91 1959 -91 
Q 1206 -91 779 398 
Q 353 888 353 1747 
Q 353 2609 779 3096 
Q 1206 3584 1959 3584 
z
" id="DejaVuSans-6f" transform="scale(0.015625)"/>
       <path d="M 2375 4863 
L 2375 4384 
L 1825 4384 
Q 1516 4384 1395 4259 
Q 1275 4134 1275 3809 
L 1275 3500 
L 2222 3500 
L 2222 3053 
L 1275 3053 
L 1275 0 
L 697 0 
L 697 3053 
L 147 3053 
L 147 3500 
L 697 3500 
L 697 3744 
Q 697 4328 969 4595 
Q 1241 4863 1831 4863 
L 2375 4863 
z
" id="DejaVuSans-66" transform="scale(0.015625)"/>
       <path d="M 2834 3397 
L 2834 2853 
Q 2591 2978 2328 3040 
Q 2066 3103 1784 3103 
Q 1356 3103 1142 2972 
Q 928 2841 928 2578 
Q 928 2378 1081 2264 
Q 1234 2150 1697 2047 
L 1894 2003 
Q 2506 1872 2764 1633 
Q 3022 1394 3022 966 
Q 3022 478 2636 193 
Q 2250 -91 1575 -91 
Q 1294 -91 989 -36 
Q 684 19 347 128 
L 347 722 
Q 666 556 975 473 
Q 1284 391 1588 391 
Q 1994 391 2212 530 
Q 2431 669 2431 922 
Q 2431 1156 2273 1281 
Q 2116 1406 1581 1522 
L 1381 1569 
Q 847 1681 609 1914 
Q 372 2147 372 2553 
Q 372 3047 722 3315 
Q 1072 3584 1716 3584 
Q 2034 3584 2315 3537 
Q 2597 3491 2834 3397 
z
" id="DejaVuSans-73" transform="scale(0.015625)"/>
      </defs>
      <use xlink:href="#DejaVuSans-6e"/>
      <use x="63.378906" xlink:href="#DejaVuSans-75"/>
      <use x="126.757812" xlink:href="#DejaVuSans-6d"/>
      <use x="224.169922" xlink:href="#DejaVuSans-62"/>
      <use x="287.646484" xlink:href="#DejaVuSans-65"/>
      <use x="349.169922" xlink:href="#DejaVuSans-72"/>
      <use x="390.283203" xlink:href="#DejaVuSans-20"/>
      <use x="422.070312" xlink:href="#DejaVuSans-6f"/>
      <use x="483.251953" xlink:href="#DejaVuSans-66"/>
      <use x="518.457031" xlink:href="#DejaVuSans-20"/>
      <use x="550.244141" xlink:href="#DejaVuSans-6e"/>
      <use x="613.623047" xlink:href="#DejaVuSans-6f"/>
      <use x="674.804688" xlink:href="#DejaVuSans-64"/>
      <use x="738.28125" xlink:href="#DejaVuSans-65"/>
      <use x="799.804688" xlink:href="#DejaVuSans-73"/>
     </g>
    </g>
   </g>
   <g id="line2d_105">
    <path clip-path="url(#pdd10561665)" d="M -1 89.289452 
L 443.007079 89.355787 
L 444.003395 90.014535 
L 444.221939 90.390967 
L 444.547847 90.653338 
L 444.763862 90.858415 
L 444.978881 90.917171 
L 445.192913 91.300879 
L 445.299563 91.350298 
L 445.512133 91.6479 
L 445.829183 91.757491 
L 446.664266 92.57239 
L 447.382901 92.857379 
L 448.090636 93.422222 
L 448.490287 93.504945 
L 449.279465 94.109052 
L 449.572 94.414021 
L 450.151622 94.805994 
L 450.343241 95.12621 
L 450.724133 95.222699 
L 450.913419 95.49176 
L 451.569939 95.729805 
L 451.755832 96.187606 
L 452.21735 96.286285 
L 452.492085 96.760611 
L 452.583305 96.771698 
L 452.946412 97.262141 
L 453.2169 97.38555 
L 454.019081 97.984707 
L 454.546307 98.144249 
L 455.497683 98.892107 
L 455.583217 98.892107 
L 455.923796 99.840898 
L 456.261906 99.959363 
L 456.681127 100.340454 
L 457.096616 100.676445 
L 457.426363 101.014837 
L 457.997872 101.270228 
L 458.240678 101.588347 
L 458.562465 102.305797 
L 459.120308 102.756643 
L 459.357357 102.996331 
L 459.436107 103.05961 
L 459.671561 103.530516 
L 460.138934 103.864248 
L 460.754904 104.044929 
L 460.983812 104.213325 
L 461.135796 104.239285 
L 461.287287 104.591148 
L 462.037448 104.827185 
L 462.84893 105.435793 
L 462.994968 105.850399 
L 463.285679 105.944525 
L 463.64654 106.33648 
L 464.218174 106.772782 
L 464.923006 107.573976 
L 465.27147 107.75543 
L 465.686219 108.630524 
L 465.89222 109.131768 
L 466.301512 109.304852 
L 466.572393 109.769527 
L 466.975788 109.988924 
L 467.042682 110.003587 
L 467.375725 110.534491 
L 467.442049 110.534491 
L 467.640457 110.951572 
L 468.034762 111.101425 
L 468.490611 111.91893 
L 468.684619 112.502793 
L 468.877825 112.611137 
L 469.070233 113.093948 
L 469.452687 113.676727 
L 469.642744 113.708434 
L 470.020552 114.234688 
L 470.457496 114.669654 
L 470.581589 114.734434 
L 470.951901 115.239513 
L 471.258265 115.337895 
L 471.925267 115.568253 
L 472.105534 115.783165 
L 472.225326 115.816315 
L 472.463992 116.3499 
L 472.523468 116.3499 
L 472.760617 116.78791 
L 472.878742 116.95746 
L 473.17275 117.21293 
L 473.23133 117.23001 
L 473.523133 117.831741 
L 473.639345 117.918331 
L 474.672428 118.722474 
L 474.785816 118.828377 
L 476.125402 120.336441 
L 476.290178 120.391199 
L 476.454374 120.923819 
L 476.781043 121.034769 
L 477.213074 121.4625 
L 477.32046 121.668442 
L 477.641142 122.234698 
L 477.959635 122.310713 
L 479.160773 123.29076 
L 479.366546 123.56338 
L 479.469094 123.602455 
L 479.826245 123.975277 
L 479.877044 124.014693 
L 480.029111 124.37092 
L 480.331765 124.589942 
L 482.780335 126.670639 
L 483.160452 127.23707 
L 483.254999 127.300427 
L 483.490532 127.639772 
L 483.584413 127.767657 
L 483.771611 128.088887 
L 483.911519 128.153395 
L 484.46699 128.781551 
L 484.650687 128.825181 
L 484.879296 129.131721 
L 484.970427 129.21967 
L 485.737937 129.817637 
L 486.183586 130.108264 
L 486.36066 130.265497 
L 486.493026 130.423254 
L 486.668932 130.672226 
L 487.452405 131.334952 
L 487.581714 131.427095 
L 487.924796 131.937112 
L 488.052805 132.007088 
L 488.350132 132.452684 
L 488.519187 132.665229 
L 489.106101 132.878733 
L 489.272443 132.902515 
L 489.438195 133.164911 
L 489.562124 133.260689 
L 489.726851 133.525083 
L 491.1838 135.068465 
L 491.303183 135.243099 
L 491.50148 135.393301 
L 491.620054 135.443474 
L 491.856303 135.846786 
L 492.01314 136.024321 
L 492.208448 136.253563 
L 492.596629 136.638118 
L 493.249213 137.338288 
L 494.379027 138.234976 
L 494.527623 138.475205 
L 494.823402 138.582367 
L 495.007317 138.82437 
L 495.08068 138.878317 
L 495.263585 139.094721 
L 495.372985 139.176129 
L 495.627258 139.530521 
L 495.73581 139.612682 
L 496.131685 140.053299 
L 496.203303 140.080974 
L 496.488681 140.665923 
L 496.701574 140.75008 
L 496.772323 140.806268 
L 496.9135 141.144804 
L 496.948728 141.144804 
L 497.19458 141.714467 
L 497.334487 141.800511 
L 497.57832 142.030729 
L 497.751709 142.088458 
L 498.027799 142.378168 
L 498.130913 142.465428 
L 498.233799 142.669662 
L 498.744856 143.376658 
L 498.913972 143.46578 
L 499.116105 143.76407 
L 499.283884 143.94395 
L 499.783628 144.487729 
L 499.949027 144.731428 
L 500.080926 144.823139 
L 500.40905 145.222622 
L 500.929295 145.812613 
L 501.122901 146.09467 
L 501.283628 146.157578 
L 501.475773 146.346806 
L 501.635291 146.441705 
L 501.889391 147.015125 
L 502.015925 147.111373 
L 502.362131 147.530729 
L 502.581115 147.986535 
L 502.674651 148.05201 
L 502.923169 148.380751 
L 503.046933 148.47982 
L 504.507048 150.19651 
L 504.835319 150.678856 
L 505.922854 151.800174 
L 506.067893 151.906672 
L 506.299022 152.227612 
L 506.557681 152.335077 
L 506.757873 152.731217 
L 506.871884 152.8036 
L 507.070736 153.1307 
L 507.941318 154.088553 
L 508.080225 154.163043 
L 508.218721 154.424685 
L 508.356806 154.499706 
L 508.686553 155.104195 
L 508.986788 155.332884 
L 509.068336 155.40936 
L 510.380499 157.084197 
L 510.433281 157.12386 
L 510.617548 157.362542 
L 510.722517 157.442371 
L 511.269767 158.085894 
L 511.347425 158.126406 
L 511.528124 158.492584 
L 511.631067 158.574343 
L 512.269368 159.399794 
L 512.421269 159.483136 
L 513.098772 160.409719 
L 513.223163 160.49486 
L 513.791128 161.2681 
L 513.889203 161.3548 
L 514.882759 162.898342 
L 514.954635 162.943191 
L 515.121914 163.213183 
L 515.264821 163.303523 
L 515.714493 163.940781 
L 515.808611 164.032522 
L 516.183197 164.540302 
L 516.253098 164.586735 
L 516.392587 164.772923 
L 516.577926 164.866293 
L 516.94641 165.383145 
L 517.129566 165.477727 
L 517.266463 165.525089 
L 517.471059 165.619956 
L 517.69734 165.857957 
L 517.76501 165.905701 
L 517.922528 166.097162 
L 518.057122 166.193183 
L 518.480791 166.87084 
L 518.635915 166.919618 
L 518.81257 167.213342 
L 518.988559 167.311657 
L 519.207616 167.55834 
L 519.294952 167.657374 
L 519.42565 167.806316 
L 519.599346 167.905871 
L 519.858683 168.255972 
L 519.966317 168.356478 
L 520.180841 168.608681 
L 520.330424 168.70994 
L 520.734033 169.424881 
L 520.81856 169.527903 
L 521.092221 169.942246 
L 521.176102 170.046401 
L 521.364286 170.255401 
L 521.468506 170.360248 
L 521.759088 170.834955 
L 521.924326 170.941095 
L 522.150577 171.260951 
L 522.232579 171.368051 
L 522.375736 171.475395 
L 522.477723 171.582982 
L 522.701313 171.907219 
L 522.822821 172.015793 
L 523.205522 172.727663 
L 523.325725 172.838138 
L 523.565208 173.226842 
L 523.684489 173.282633 
L 523.823267 173.394412 
L 523.862842 173.450401 
L 524.060216 173.731342 
L 524.09959 173.731342 
L 524.315559 174.412482 
L 524.354719 174.412482 
L 524.530533 174.814388 
L 524.705687 174.987683 
L 524.802712 175.045589 
L 524.996158 175.277925 
L 525.092581 175.336188 
L 525.265641 175.511408 
L 525.342352 175.569959 
L 525.533577 175.804889 
L 525.628897 175.863805 
L 525.818955 176.100202 
L 525.856873 176.159486 
L 526.046006 176.397368 
L 526.102597 176.457026 
L 526.271959 176.636451 
L 526.421988 176.696411 
L 526.590196 177.057775 
L 526.664761 177.118272 
L 526.794964 177.300226 
L 526.869202 177.361033 
L 527.072752 177.666247 
L 527.220232 177.727526 
L 527.385592 177.911842 
L 527.477206 177.973441 
L 527.696349 178.344724 
L 527.787355 178.406889 
L 528.00505 178.781602 
L 528.059315 178.844343 
L 528.275747 179.222548 
L 528.329698 179.285877 
L 528.491179 179.476374 
L 528.58065 179.540044 
L 528.759079 179.795583 
L 528.776884 179.795583 
L 528.901332 180.052508 
L 529.113902 180.44053 
L 529.237456 180.505511 
L 529.395831 180.70099 
L 529.466048 180.766329 
L 529.62365 181.160271 
L 529.745863 181.226248 
L 529.919899 181.491079 
L 529.989332 181.557519 
L 530.197013 181.958129 
L 530.283275 182.025228 
L 530.403775 182.29458 
L 530.455322 182.362158 
L 530.660944 182.769665 
L 530.729284 182.837925 
L 530.882684 183.043298 
L 530.933705 183.111954 
L 531.103375 183.387579 
L 531.120308 183.387579 
L 531.272429 183.734382 
L 531.457685 184.083745 
L 531.508082 184.153928 
L 531.675679 184.435705 
L 531.725841 184.506412 
L 531.892659 184.790302 
L 531.95922 184.861541 
L 532.125207 185.147575 
L 532.174889 185.219354 
L 532.356602 185.579892 
L 532.406038 185.65233 
L 532.570446 185.943197 
L 532.636048 186.016194 
L 532.766975 186.162526 
L 532.832301 186.235862 
L 533.027731 186.604257 
L 533.092694 186.678281 
L 533.270874 186.97554 
L 533.319351 187.050148 
L 533.432269 187.199716 
L 533.464481 187.274678 
L 533.625208 187.500279 
L 533.721379 187.575719 
L 533.913129 187.954731 
L 534.008709 188.030899 
L 534.325903 189.0324 
L 534.515189 189.110324 
L 534.68803 189.423306 
L 534.766382 189.501876 
L 534.953894 189.896694 
L 535.000654 189.976055 
L 535.187228 190.374864 
L 535.280236 190.455031 
L 535.511949 191.1013 
L 535.619689 191.182707 
L 535.773172 191.427773 
L 535.803809 191.509744 
L 535.987205 191.921744 
L 536.093854 192.004575 
L 536.260955 192.33736 
L 536.336713 192.420923 
L 536.56325 193.094791 
L 536.593372 193.179703 
L 536.773697 193.606563 
L 536.878566 193.692399 
L 537.02797 193.950844 
L 537.102494 194.037307 
L 537.251184 194.297647 
L 537.295699 194.384746 
L 537.458558 194.734755 
L 537.5619 194.822663 
L 537.78258 195.531866 
L 537.885208 195.621268 
L 538.046026 195.980575 
L 538.133512 196.070829 
L 538.278958 196.34263 
L 538.322503 196.433578 
L 538.49628 196.890957 
L 538.626189 196.982966 
L 538.798841 197.445711 
L 538.89926 197.538805 
L 539.056626 197.913024 
L 539.113719 198.007043 
L 539.298789 198.575111 
L 539.426486 198.670455 
L 539.582087 199.053764 
L 539.652644 199.150078 
L 539.807494 199.537307 
L 539.849637 199.537307 
L 539.975837 199.927729 
L 540.12962 200.02584 
L 540.268984 200.222673 
L 540.324613 200.321398 
L 540.504951 200.818133 
L 540.601769 200.918109 
L 540.767275 201.320136 
L 540.849809 201.421179 
L 541.000743 201.725607 
L 541.137533 201.82752 
L 541.28754 202.134581 
L 541.328367 202.237379 
L 541.477763 202.547119 
L 541.559051 202.650817 
L 541.694216 202.858899 
L 541.761652 202.963283 
L 541.923102 203.383139 
L 542.043825 203.488688 
L 542.204303 203.91325 
L 542.3243 204.019989 
L 542.483819 204.449365 
L 542.616335 204.55732 
L 542.788046 205.100822 
L 542.959127 205.210275 
L 543.129583 205.761368 
L 543.260281 205.872361 
L 543.403627 206.20691 
L 543.494618 206.20691 
L 543.663133 206.769799 
L 543.714861 206.769799 
L 543.869703 207.22498 
L 543.882583 207.22498 
L 544.024033 207.569261 
L 544.049705 207.569261 
L 544.229015 208.265427 
L 544.241797 208.265427 
L 544.382163 208.617387 
L 544.445827 208.617387 
L 544.598266 209.090775 
L 544.623624 209.090775 
L 544.750209 209.329256 
L 544.762848 209.329256 
L 544.901658 209.689246 
L 544.939444 209.689246 
L 545.07773 210.051995 
L 545.102829 210.051995 
L 545.25314 210.540024 
L 545.278145 210.540024 
L 545.402969 210.785938 
L 545.490147 210.785938 
L 545.639218 211.157222 
L 545.664017 211.157222 
L 545.83724 211.782574 
L 545.861934 211.782574 
L 546.034426 212.416297 
L 546.095876 212.416297 
L 546.255269 212.929456 
L 546.304203 212.929456 
L 546.462887 213.448238 
L 546.475071 213.448238 
L 546.633176 213.972769 
L 546.645315 213.972769 
L 546.790746 214.370017 
L 546.827033 214.370017 
L 546.959845 214.636713 
L 546.983952 214.636713 
L 547.152353 215.310102 
L 547.17636 215.310102 
L 547.33211 215.855796 
L 547.344069 215.855796 
L 547.487342 216.269234 
L 547.523091 216.269234 
L 547.653939 216.54688 
L 547.665816 216.54688 
L 547.808105 216.966426 
L 547.819943 216.966426 
L 547.961764 217.389723 
L 547.985359 217.389723 
L 548.126679 217.816839 
L 548.161942 217.816839 
L 548.326152 218.537377 
L 548.337859 218.537377 
L 548.478117 218.975024 
L 548.489786 218.975024 
L 548.629589 219.416754 
L 548.64122 219.416754 
L 548.78057 219.862645 
L 548.815343 219.862645 
L 548.954174 220.312776 
L 548.977273 220.312776 
L 549.104111 220.615259 
L 549.161651 220.615259 
L 549.299458 221.072639 
L 549.322386 221.072639 
L 549.471146 221.689435 
L 549.482569 221.689435 
L 549.608043 222.000873 
L 549.619433 222.000873 
L 549.755896 222.471906 
L 549.812638 222.471906 
L 549.948538 222.947673 
L 549.959845 222.947673 
L 550.084044 223.267529 
L 550.140388 223.267529 
L 550.264108 223.58956 
L 550.286567 223.58956 
L 550.432289 224.24027 
L 550.488215 224.24027 
L 550.611017 224.569011 
L 550.666729 224.569011 
L 550.81127 225.066442 
L 550.833468 225.066442 
L 550.977494 225.569156 
L 551.010668 225.569156 
L 551.143128 225.907289 
L 551.165169 225.907289 
L 551.319159 226.590888 
L 551.341116 226.590888 
L 551.483587 227.110145 
L 551.494528 227.110145 
L 551.625623 227.459507 
L 551.65834 227.459507 
L 551.810714 228.166064 
L 551.843301 228.166064 
L 551.984248 228.70299 
L 552.016714 228.70299 
L 552.15714 229.246075 
L 552.200263 229.246075 
L 552.35088 229.980019 
L 552.426007 229.980019 
L 552.554514 230.351303 
L 552.575898 230.351303 
L 552.714653 230.913746 
L 552.725309 230.913746 
L 552.863622 231.482952 
L 552.937928 231.482952 
L 553.065035 231.866262 
L 553.086186 231.866262 
L 553.212891 232.2527 
L 553.233975 232.2527 
L 553.37079 232.838337 
L 553.391803 232.838337 
L 553.528156 233.431311 
L 553.570031 233.431311 
L 553.705865 234.031806 
L 553.737156 234.031806 
L 553.872505 234.640017 
L 553.893293 234.640017 
L 554.038552 235.463315 
L 554.06962 235.463315 
L 554.214331 236.301185 
L 554.255595 236.301185 
L 554.379168 236.725748 
L 554.43056 236.725748 
L 554.563915 237.369818 
L 554.584398 237.369818 
L 554.707104 237.804119 
L 554.758137 237.804119 
L 554.870212 238.022772 
L 554.880388 238.022772 
L 555.012465 238.684859 
L 555.032752 238.684859 
L 555.154286 239.131451 
L 555.194728 239.131451 
L 555.32592 239.582297 
L 555.335996 239.582297 
L 555.486883 240.497077 
L 555.55713 240.497077 
L 555.697307 241.194954 
L 555.767238 241.194954 
L 555.906787 241.903273 
L 555.936636 241.903273 
L 556.065762 242.381443 
L 556.095509 242.381443 
L 556.224197 242.864492 
L 556.243963 242.864492 
L 556.372242 243.352522 
L 556.470679 243.352522 
L 556.608143 244.094131 
L 556.647344 244.094131 
L 556.77452 244.595071 
L 556.784289 244.595071 
L 556.920833 245.356564 
L 556.979229 245.356564 
L 557.115205 246.130506 
L 557.202409 246.130506 
L 557.337737 246.917313 
L 557.37633 246.917313 
L 557.501538 247.449211 
L 557.52077 247.449211 
L 557.664765 248.531279 
L 557.712665 248.531279 
L 557.836974 249.081732 
L 557.884697 249.081732 
L 558.00855 249.638661 
L 558.065602 249.638661 
L 558.198453 250.486536 
L 558.245808 250.486536 
L 558.387586 251.641189 
L 558.444176 251.641189 
L 558.575955 252.526045 
L 558.632318 252.526045 
L 558.763567 253.427757 
L 558.800999 253.427757 
L 558.931775 254.346979 
L 558.978392 254.346979 
L 559.099379 254.969862 
L 559.108673 254.969862 
L 559.247857 255.919829 
L 559.294159 255.919829 
L 559.423562 256.563899 
L 559.460469 256.563899 
L 559.589412 257.216853 
L 559.598609 257.216853 
L 559.736341 258.213488 
L 559.79132 258.213488 
L 559.919354 258.889763 
L 559.95587 258.889763 
L 560.083454 259.575839 
L 560.092553 259.575839 
L 560.219764 260.272005 
L 560.256046 260.272005 
L 560.391854 261.335835 
L 560.400894 261.335835 
L 560.536282 262.424122 
L 560.599328 262.424122 
L 560.734142 263.538019 
L 560.761058 263.538019 
L 560.886462 264.29545 
L 560.95797 264.29545 
L 561.091753 265.454816 
L 561.171839 265.454816 
L 561.296145 266.243809 
L 561.305011 266.243809 
L 561.446644 267.862374 
L 561.481985 267.862374 
L 561.614276 269.113683 
L 561.631886 269.113683 
L 561.754974 269.966651 
L 561.772532 269.966651 
L 561.904003 271.275631 
L 561.956488 271.275631 
L 562.078723 272.168835 
L 562.165839 272.168835 
L 562.287528 273.079217 
L 562.322238 273.079217 
L 562.44352 274.007452 
L 562.460821 274.007452 
L 562.573117 274.478485 
L 562.616236 274.478485 
L 562.736757 275.434849 
L 562.753949 275.434849 
L 562.874116 276.410934 
L 562.891257 276.410934 
L 563.011072 277.407569 
L 563.079399 277.407569 
L 563.207244 278.425639 
L 563.283783 278.425639 
L 563.41107 279.466086 
L 563.470351 279.466086 
L 563.597131 280.529915 
L 563.614009 280.529915 
L 563.740399 281.618203 
L 563.748813 281.618203 
L 563.874839 282.7321 
L 563.916772 282.7321 
L 564.050706 284.453687 
L 564.134219 284.453687 
L 564.25921 285.637209 
L 564.334044 285.637209 
L 564.450215 286.240255 
L 564.458501 286.240255 
L 564.582628 287.469893 
L 564.698182 287.469893 
L 564.821673 288.732326 
L 564.87919 288.732326 
L 565.002204 290.029351 
L 565.075857 290.029351 
L 565.198354 291.362916 
L 565.255409 291.362916 
L 565.377436 292.73514 
L 565.450499 292.73514 
L 565.572018 294.148332 
L 565.612454 294.148332 
L 565.733552 295.605014 
L 565.789957 295.605014 
L 565.910596 297.107948 
L 565.974809 297.107948 
L 566.102971 299.455789 
L 566.190879 299.455789 
L 566.310487 301.08831 
L 566.4139 301.08831 
L 566.540863 302.779148 
L 566.548787 302.779148 
L 566.675384 304.532624 
L 566.699083 304.532624 
L 566.825274 306.353557 
L 566.841024 306.353557 
L 566.958979 307.290982 
L 576.787406 307.290982 
L 576.908128 309.223431 
L 577.015879 309.223431 
L 577.129697 310.220067 
L 577.136012 310.220067 
L 577.255836 312.278583 
L 577.369071 312.278583 
L 577.482032 313.342413 
L 577.507097 313.342413 
L 577.619725 314.430701 
L 577.707136 314.430701 
L 577.819282 315.544597 
L 577.831726 315.544597 
L 577.943574 316.685338 
L 577.986998 316.685338 
L 578.098474 317.854247 
L 578.110844 317.854247 
L 578.222025 319.052752 
L 578.252862 319.052752 
L 578.376006 321.544824 
L 578.480423 321.544824 
L 578.602968 324.175413 
L 578.706879 324.175413 
L 578.822741 325.547638 
L 578.877523 325.547638 
L 578.999031 328.417512 
L 579.083899 328.417512 
L 579.19883 329.920445 
L 579.241102 329.920445 
L 579.355647 331.472664 
L 579.397777 331.472664 
L 579.511939 333.07751 
L 579.565918 333.07751 
L 579.679669 334.738678 
L 579.685649 334.738678 
L 579.805073 338.246833 
L 579.870626 338.246833 
L 579.983638 340.10348 
L 580.03114 340.10348 
L 580.143765 342.035929 
L 580.220667 342.035929 
L 580.332835 344.050634 
L 580.368201 344.050634 
L 580.480016 346.154911 
L 580.544628 346.154911 
L 580.656021 348.357095 
L 580.685291 348.357095 
L 580.802187 350.666745 
L 580.866355 350.666745 
L 580.982799 353.094889 
L 580.994428 353.094889 
L 581.116351 358.360135 
L 581.255304 358.360135 
L 581.370782 361.23001 
L 581.416894 361.23001 
L 581.531973 364.285162 
L 581.554955 364.285162 
L 581.669695 367.551176 
L 581.681154 367.551176 
L 581.795584 371.059331 
L 581.869814 371.059331 
L 581.983784 374.848426 
L 582.063397 374.848426 
L 582.176895 378.967408 
L 582.21089 378.967408 
L 582.324031 383.479242 
L 582.36921 383.479242 
L 582.481968 388.466843 
L 582.53262 388.466843 
L 582.644984 394.042507 
L 582.673032 394.042507 
L 582.785059 400.363673 
L 582.829794 400.363673 
L 582.941446 407.660924 
L 583.030575 407.660924 
L 583.141747 416.29174 
L 583.252655 416.29174 
L 583.368826 426.855005 
L 583.517764 426.855005 
L 583.633277 440.473422 
L 583.704642 440.473422 
L 583.819694 459.667502 
L 583.939921 459.667502 
L 584.054395 492.48 
L 584.325827 492.48 
L 584.325832 577 
L 584.325832 577 
" style="fill:none;stroke:#1f77b4;stroke-linecap:square;stroke-width:1.5;"/>
   </g>
   <g id="patch_3">
    <path d="M 126 512.64 
L 126 69.12 
" style="fill:none;stroke:#000000;stroke-linecap:square;stroke-linejoin:miter;stroke-width:0.8;"/>
   </g>
   <g id="patch_4">
    <path d="M 907.2 512.64 
L 907.2 69.12 
" style="fill:none;stroke:#000000;stroke-linecap:square;stroke-linejoin:miter;stroke-width:0.8;"/>
   </g>
   <g id="patch_5">
    <path d="M 126 512.64 
L 907.2 512.64 
" style="fill:none;stroke:#000000;stroke-linecap:square;stroke-linejoin:miter;stroke-width:0.8;"/>
   </g>
   <g id="patch_6">
    <path d="M 126 69.12 
L 907.2 69.12 
" style="fill:none;stroke:#000000;stroke-linecap:square;stroke-linejoin:miter;stroke-width:0.8;"/>
   </g>
  </g>
 </g>
 <defs>
  <clipPath id="pdd10561665">
   <rect height="443.52" width="781.2" x="126" y="69.12"/>
  </clipPath>
 </defs>
</svg>
