<?xml version="1.0" encoding="utf-8" standalone="no"?>
<!DOCTYPE svg PUBLIC "-//W3C//DTD SVG 1.1//EN"
  "http://www.w3.org/Graphics/SVG/1.1/DTD/svg11.dtd">
<svg height="576pt" version="1.1" viewBox="0 0 1008 576" width="1008pt" xmlns="http://www.w3.org/2000/svg" xmlns:xlink="http://www.w3.org/1999/xlink">
 <metadata>
  <rdf:RDF xmlns:cc="http://creativecommons.org/ns#" xmlns:dc="http://purl.org/dc/elements/1.1/" xmlns:rdf="http://www.w3.org/1999/02/22-rdf-syntax-ns#">
   <cc:Work>
    <dc:type rdf:resource="http://purl.org/dc/dcmitype/StillImage"/>
    <dc:date>2021-06-11T00:09:50.516667</dc:date>
    <dc:format>image/svg+xml</dc:format>
    <dc:creator>
     <cc:Agent>
      <dc:title>Matplotlib v3.4.2, https://matplotlib.org/</dc:title>
     </cc:Agent>
    </dc:creator>
   </cc:Work>
  </rdf:RDF>
 </metadata>
 <defs>
  <style type="text/css">*{stroke-linecap:butt;stroke-linejoin:round;}</style>
 </defs>
 <g id="figure_1">
  <g id="patch_1">
   <path d="M 0 576 
L 1008 576 
L 1008 0 
L 0 0 
z
" style="fill:#ffffff;"/>
  </g>
  <g id="axes_1">
   <g id="patch_2">
    <path d="M 126 512.64 
L 907.2 512.64 
L 907.2 69.12 
L 126 69.12 
z
" style="fill:#ffffff;"/>
   </g>
   <g id="matplotlib.axis_1">
    <g id="xtick_1">
     <g id="line2d_1">
      <defs>
       <path d="M 0 0 
L 0 3.5 
" id="md454b52119" style="stroke:#000000;stroke-width:0.8;"/>
      </defs>
      <g>
       <use style="stroke:#000000;stroke-width:0.8;" x="161.509091" xlink:href="#md454b52119" y="512.64"/>
      </g>
     </g>
     <g id="text_1">
      <!-- $\mathdefault{10^{0}}$ -->
      <g transform="translate(152.709091 527.238438)scale(0.1 -0.1)">
       <defs>
        <path d="M 794 531 
L 1825 531 
L 1825 4091 
L 703 3866 
L 703 4441 
L 1819 4666 
L 2450 4666 
L 2450 531 
L 3481 531 
L 3481 0 
L 794 0 
L 794 531 
z
" id="DejaVuSans-31" transform="scale(0.015625)"/>
        <path d="M 2034 4250 
Q 1547 4250 1301 3770 
Q 1056 3291 1056 2328 
Q 1056 1369 1301 889 
Q 1547 409 2034 409 
Q 2525 409 2770 889 
Q 3016 1369 3016 2328 
Q 3016 3291 2770 3770 
Q 2525 4250 2034 4250 
z
M 2034 4750 
Q 2819 4750 3233 4129 
Q 3647 3509 3647 2328 
Q 3647 1150 3233 529 
Q 2819 -91 2034 -91 
Q 1250 -91 836 529 
Q 422 1150 422 2328 
Q 422 3509 836 4129 
Q 1250 4750 2034 4750 
z
" id="DejaVuSans-30" transform="scale(0.015625)"/>
       </defs>
       <use transform="translate(0 0.765625)" xlink:href="#DejaVuSans-31"/>
       <use transform="translate(63.623047 0.765625)" xlink:href="#DejaVuSans-30"/>
       <use transform="translate(128.203125 39.046875)scale(0.7)" xlink:href="#DejaVuSans-30"/>
      </g>
     </g>
    </g>
    <g id="xtick_2">
     <g id="line2d_2">
      <g>
       <use style="stroke:#000000;stroke-width:0.8;" x="274.077602" xlink:href="#md454b52119" y="512.64"/>
      </g>
     </g>
     <g id="text_2">
      <!-- $\mathdefault{10^{1}}$ -->
      <g transform="translate(265.277602 527.238438)scale(0.1 -0.1)">
       <use transform="translate(0 0.684375)" xlink:href="#DejaVuSans-31"/>
       <use transform="translate(63.623047 0.684375)" xlink:href="#DejaVuSans-30"/>
       <use transform="translate(128.203125 38.965625)scale(0.7)" xlink:href="#DejaVuSans-31"/>
      </g>
     </g>
    </g>
    <g id="xtick_3">
     <g id="line2d_3">
      <g>
       <use style="stroke:#000000;stroke-width:0.8;" x="386.646112" xlink:href="#md454b52119" y="512.64"/>
      </g>
     </g>
     <g id="text_3">
      <!-- $\mathdefault{10^{2}}$ -->
      <g transform="translate(377.846112 527.238438)scale(0.1 -0.1)">
       <defs>
        <path d="M 1228 531 
L 3431 531 
L 3431 0 
L 469 0 
L 469 531 
Q 828 903 1448 1529 
Q 2069 2156 2228 2338 
Q 2531 2678 2651 2914 
Q 2772 3150 2772 3378 
Q 2772 3750 2511 3984 
Q 2250 4219 1831 4219 
Q 1534 4219 1204 4116 
Q 875 4013 500 3803 
L 500 4441 
Q 881 4594 1212 4672 
Q 1544 4750 1819 4750 
Q 2544 4750 2975 4387 
Q 3406 4025 3406 3419 
Q 3406 3131 3298 2873 
Q 3191 2616 2906 2266 
Q 2828 2175 2409 1742 
Q 1991 1309 1228 531 
z
" id="DejaVuSans-32" transform="scale(0.015625)"/>
       </defs>
       <use transform="translate(0 0.765625)" xlink:href="#DejaVuSans-31"/>
       <use transform="translate(63.623047 0.765625)" xlink:href="#DejaVuSans-30"/>
       <use transform="translate(128.203125 39.046875)scale(0.7)" xlink:href="#DejaVuSans-32"/>
      </g>
     </g>
    </g>
    <g id="xtick_4">
     <g id="line2d_4">
      <g>
       <use style="stroke:#000000;stroke-width:0.8;" x="499.214623" xlink:href="#md454b52119" y="512.64"/>
      </g>
     </g>
     <g id="text_4">
      <!-- $\mathdefault{10^{3}}$ -->
      <g transform="translate(490.414623 527.238438)scale(0.1 -0.1)">
       <defs>
        <path d="M 2597 2516 
Q 3050 2419 3304 2112 
Q 3559 1806 3559 1356 
Q 3559 666 3084 287 
Q 2609 -91 1734 -91 
Q 1441 -91 1130 -33 
Q 819 25 488 141 
L 488 750 
Q 750 597 1062 519 
Q 1375 441 1716 441 
Q 2309 441 2620 675 
Q 2931 909 2931 1356 
Q 2931 1769 2642 2001 
Q 2353 2234 1838 2234 
L 1294 2234 
L 1294 2753 
L 1863 2753 
Q 2328 2753 2575 2939 
Q 2822 3125 2822 3475 
Q 2822 3834 2567 4026 
Q 2313 4219 1838 4219 
Q 1578 4219 1281 4162 
Q 984 4106 628 3988 
L 628 4550 
Q 988 4650 1302 4700 
Q 1616 4750 1894 4750 
Q 2613 4750 3031 4423 
Q 3450 4097 3450 3541 
Q 3450 3153 3228 2886 
Q 3006 2619 2597 2516 
z
" id="DejaVuSans-33" transform="scale(0.015625)"/>
       </defs>
       <use transform="translate(0 0.765625)" xlink:href="#DejaVuSans-31"/>
       <use transform="translate(63.623047 0.765625)" xlink:href="#DejaVuSans-30"/>
       <use transform="translate(128.203125 39.046875)scale(0.7)" xlink:href="#DejaVuSans-33"/>
      </g>
     </g>
    </g>
    <g id="xtick_5">
     <g id="line2d_5">
      <g>
       <use style="stroke:#000000;stroke-width:0.8;" x="611.783133" xlink:href="#md454b52119" y="512.64"/>
      </g>
     </g>
     <g id="text_5">
      <!-- $\mathdefault{10^{4}}$ -->
      <g transform="translate(602.983133 527.238438)scale(0.1 -0.1)">
       <defs>
        <path d="M 2419 4116 
L 825 1625 
L 2419 1625 
L 2419 4116 
z
M 2253 4666 
L 3047 4666 
L 3047 1625 
L 3713 1625 
L 3713 1100 
L 3047 1100 
L 3047 0 
L 2419 0 
L 2419 1100 
L 313 1100 
L 313 1709 
L 2253 4666 
z
" id="DejaVuSans-34" transform="scale(0.015625)"/>
       </defs>
       <use transform="translate(0 0.684375)" xlink:href="#DejaVuSans-31"/>
       <use transform="translate(63.623047 0.684375)" xlink:href="#DejaVuSans-30"/>
       <use transform="translate(128.203125 38.965625)scale(0.7)" xlink:href="#DejaVuSans-34"/>
      </g>
     </g>
    </g>
    <g id="xtick_6">
     <g id="line2d_6">
      <g>
       <use style="stroke:#000000;stroke-width:0.8;" x="724.351644" xlink:href="#md454b52119" y="512.64"/>
      </g>
     </g>
     <g id="text_6">
      <!-- $\mathdefault{10^{5}}$ -->
      <g transform="translate(715.551644 527.238438)scale(0.1 -0.1)">
       <defs>
        <path d="M 691 4666 
L 3169 4666 
L 3169 4134 
L 1269 4134 
L 1269 2991 
Q 1406 3038 1543 3061 
Q 1681 3084 1819 3084 
Q 2600 3084 3056 2656 
Q 3513 2228 3513 1497 
Q 3513 744 3044 326 
Q 2575 -91 1722 -91 
Q 1428 -91 1123 -41 
Q 819 9 494 109 
L 494 744 
Q 775 591 1075 516 
Q 1375 441 1709 441 
Q 2250 441 2565 725 
Q 2881 1009 2881 1497 
Q 2881 1984 2565 2268 
Q 2250 2553 1709 2553 
Q 1456 2553 1204 2497 
Q 953 2441 691 2322 
L 691 4666 
z
" id="DejaVuSans-35" transform="scale(0.015625)"/>
       </defs>
       <use transform="translate(0 0.684375)" xlink:href="#DejaVuSans-31"/>
       <use transform="translate(63.623047 0.684375)" xlink:href="#DejaVuSans-30"/>
       <use transform="translate(128.203125 38.965625)scale(0.7)" xlink:href="#DejaVuSans-35"/>
      </g>
     </g>
    </g>
    <g id="xtick_7">
     <g id="line2d_7">
      <g>
       <use style="stroke:#000000;stroke-width:0.8;" x="836.920155" xlink:href="#md454b52119" y="512.64"/>
      </g>
     </g>
     <g id="text_7">
      <!-- $\mathdefault{10^{6}}$ -->
      <g transform="translate(828.120155 527.238438)scale(0.1 -0.1)">
       <defs>
        <path d="M 2113 2584 
Q 1688 2584 1439 2293 
Q 1191 2003 1191 1497 
Q 1191 994 1439 701 
Q 1688 409 2113 409 
Q 2538 409 2786 701 
Q 3034 994 3034 1497 
Q 3034 2003 2786 2293 
Q 2538 2584 2113 2584 
z
M 3366 4563 
L 3366 3988 
Q 3128 4100 2886 4159 
Q 2644 4219 2406 4219 
Q 1781 4219 1451 3797 
Q 1122 3375 1075 2522 
Q 1259 2794 1537 2939 
Q 1816 3084 2150 3084 
Q 2853 3084 3261 2657 
Q 3669 2231 3669 1497 
Q 3669 778 3244 343 
Q 2819 -91 2113 -91 
Q 1303 -91 875 529 
Q 447 1150 447 2328 
Q 447 3434 972 4092 
Q 1497 4750 2381 4750 
Q 2619 4750 2861 4703 
Q 3103 4656 3366 4563 
z
" id="DejaVuSans-36" transform="scale(0.015625)"/>
       </defs>
       <use transform="translate(0 0.765625)" xlink:href="#DejaVuSans-31"/>
       <use transform="translate(63.623047 0.765625)" xlink:href="#DejaVuSans-30"/>
       <use transform="translate(128.203125 39.046875)scale(0.7)" xlink:href="#DejaVuSans-36"/>
      </g>
     </g>
    </g>
    <g id="xtick_8">
     <g id="line2d_8">
      <defs>
       <path d="M 0 0 
L 0 2 
" id="m330c79422f" style="stroke:#000000;stroke-width:0.6;"/>
      </defs>
      <g>
       <use style="stroke:#000000;stroke-width:0.6;" x="127.622593" xlink:href="#m330c79422f" y="512.64"/>
      </g>
     </g>
    </g>
    <g id="xtick_9">
     <g id="line2d_9">
      <g>
       <use style="stroke:#000000;stroke-width:0.6;" x="136.535908" xlink:href="#m330c79422f" y="512.64"/>
      </g>
     </g>
    </g>
    <g id="xtick_10">
     <g id="line2d_10">
      <g>
       <use style="stroke:#000000;stroke-width:0.6;" x="144.072008" xlink:href="#m330c79422f" y="512.64"/>
      </g>
     </g>
    </g>
    <g id="xtick_11">
     <g id="line2d_11">
      <g>
       <use style="stroke:#000000;stroke-width:0.6;" x="150.600075" xlink:href="#m330c79422f" y="512.64"/>
      </g>
     </g>
    </g>
    <g id="xtick_12">
     <g id="line2d_12">
      <g>
       <use style="stroke:#000000;stroke-width:0.6;" x="156.358238" xlink:href="#m330c79422f" y="512.64"/>
      </g>
     </g>
    </g>
    <g id="xtick_13">
     <g id="line2d_13">
      <g>
       <use style="stroke:#000000;stroke-width:0.6;" x="195.395589" xlink:href="#m330c79422f" y="512.64"/>
      </g>
     </g>
    </g>
    <g id="xtick_14">
     <g id="line2d_14">
      <g>
       <use style="stroke:#000000;stroke-width:0.6;" x="215.21792" xlink:href="#m330c79422f" y="512.64"/>
      </g>
     </g>
    </g>
    <g id="xtick_15">
     <g id="line2d_15">
      <g>
       <use style="stroke:#000000;stroke-width:0.6;" x="229.282087" xlink:href="#m330c79422f" y="512.64"/>
      </g>
     </g>
    </g>
    <g id="xtick_16">
     <g id="line2d_16">
      <g>
       <use style="stroke:#000000;stroke-width:0.6;" x="240.191103" xlink:href="#m330c79422f" y="512.64"/>
      </g>
     </g>
    </g>
    <g id="xtick_17">
     <g id="line2d_17">
      <g>
       <use style="stroke:#000000;stroke-width:0.6;" x="249.104418" xlink:href="#m330c79422f" y="512.64"/>
      </g>
     </g>
    </g>
    <g id="xtick_18">
     <g id="line2d_18">
      <g>
       <use style="stroke:#000000;stroke-width:0.6;" x="256.640519" xlink:href="#m330c79422f" y="512.64"/>
      </g>
     </g>
    </g>
    <g id="xtick_19">
     <g id="line2d_19">
      <g>
       <use style="stroke:#000000;stroke-width:0.6;" x="263.168586" xlink:href="#m330c79422f" y="512.64"/>
      </g>
     </g>
    </g>
    <g id="xtick_20">
     <g id="line2d_20">
      <g>
       <use style="stroke:#000000;stroke-width:0.6;" x="268.926749" xlink:href="#m330c79422f" y="512.64"/>
      </g>
     </g>
    </g>
    <g id="xtick_21">
     <g id="line2d_21">
      <g>
       <use style="stroke:#000000;stroke-width:0.6;" x="307.9641" xlink:href="#m330c79422f" y="512.64"/>
      </g>
     </g>
    </g>
    <g id="xtick_22">
     <g id="line2d_22">
      <g>
       <use style="stroke:#000000;stroke-width:0.6;" x="327.786431" xlink:href="#m330c79422f" y="512.64"/>
      </g>
     </g>
    </g>
    <g id="xtick_23">
     <g id="line2d_23">
      <g>
       <use style="stroke:#000000;stroke-width:0.6;" x="341.850598" xlink:href="#m330c79422f" y="512.64"/>
      </g>
     </g>
    </g>
    <g id="xtick_24">
     <g id="line2d_24">
      <g>
       <use style="stroke:#000000;stroke-width:0.6;" x="352.759614" xlink:href="#m330c79422f" y="512.64"/>
      </g>
     </g>
    </g>
    <g id="xtick_25">
     <g id="line2d_25">
      <g>
       <use style="stroke:#000000;stroke-width:0.6;" x="361.672929" xlink:href="#m330c79422f" y="512.64"/>
      </g>
     </g>
    </g>
    <g id="xtick_26">
     <g id="line2d_26">
      <g>
       <use style="stroke:#000000;stroke-width:0.6;" x="369.209029" xlink:href="#m330c79422f" y="512.64"/>
      </g>
     </g>
    </g>
    <g id="xtick_27">
     <g id="line2d_27">
      <g>
       <use style="stroke:#000000;stroke-width:0.6;" x="375.737096" xlink:href="#m330c79422f" y="512.64"/>
      </g>
     </g>
    </g>
    <g id="xtick_28">
     <g id="line2d_28">
      <g>
       <use style="stroke:#000000;stroke-width:0.6;" x="381.49526" xlink:href="#m330c79422f" y="512.64"/>
      </g>
     </g>
    </g>
    <g id="xtick_29">
     <g id="line2d_29">
      <g>
       <use style="stroke:#000000;stroke-width:0.6;" x="420.53261" xlink:href="#m330c79422f" y="512.64"/>
      </g>
     </g>
    </g>
    <g id="xtick_30">
     <g id="line2d_30">
      <g>
       <use style="stroke:#000000;stroke-width:0.6;" x="440.354941" xlink:href="#m330c79422f" y="512.64"/>
      </g>
     </g>
    </g>
    <g id="xtick_31">
     <g id="line2d_31">
      <g>
       <use style="stroke:#000000;stroke-width:0.6;" x="454.419109" xlink:href="#m330c79422f" y="512.64"/>
      </g>
     </g>
    </g>
    <g id="xtick_32">
     <g id="line2d_32">
      <g>
       <use style="stroke:#000000;stroke-width:0.6;" x="465.328124" xlink:href="#m330c79422f" y="512.64"/>
      </g>
     </g>
    </g>
    <g id="xtick_33">
     <g id="line2d_33">
      <g>
       <use style="stroke:#000000;stroke-width:0.6;" x="474.241439" xlink:href="#m330c79422f" y="512.64"/>
      </g>
     </g>
    </g>
    <g id="xtick_34">
     <g id="line2d_34">
      <g>
       <use style="stroke:#000000;stroke-width:0.6;" x="481.77754" xlink:href="#m330c79422f" y="512.64"/>
      </g>
     </g>
    </g>
    <g id="xtick_35">
     <g id="line2d_35">
      <g>
       <use style="stroke:#000000;stroke-width:0.6;" x="488.305607" xlink:href="#m330c79422f" y="512.64"/>
      </g>
     </g>
    </g>
    <g id="xtick_36">
     <g id="line2d_36">
      <g>
       <use style="stroke:#000000;stroke-width:0.6;" x="494.06377" xlink:href="#m330c79422f" y="512.64"/>
      </g>
     </g>
    </g>
    <g id="xtick_37">
     <g id="line2d_37">
      <g>
       <use style="stroke:#000000;stroke-width:0.6;" x="533.101121" xlink:href="#m330c79422f" y="512.64"/>
      </g>
     </g>
    </g>
    <g id="xtick_38">
     <g id="line2d_38">
      <g>
       <use style="stroke:#000000;stroke-width:0.6;" x="552.923452" xlink:href="#m330c79422f" y="512.64"/>
      </g>
     </g>
    </g>
    <g id="xtick_39">
     <g id="line2d_39">
      <g>
       <use style="stroke:#000000;stroke-width:0.6;" x="566.987619" xlink:href="#m330c79422f" y="512.64"/>
      </g>
     </g>
    </g>
    <g id="xtick_40">
     <g id="line2d_40">
      <g>
       <use style="stroke:#000000;stroke-width:0.6;" x="577.896635" xlink:href="#m330c79422f" y="512.64"/>
      </g>
     </g>
    </g>
    <g id="xtick_41">
     <g id="line2d_41">
      <g>
       <use style="stroke:#000000;stroke-width:0.6;" x="586.80995" xlink:href="#m330c79422f" y="512.64"/>
      </g>
     </g>
    </g>
    <g id="xtick_42">
     <g id="line2d_42">
      <g>
       <use style="stroke:#000000;stroke-width:0.6;" x="594.34605" xlink:href="#m330c79422f" y="512.64"/>
      </g>
     </g>
    </g>
    <g id="xtick_43">
     <g id="line2d_43">
      <g>
       <use style="stroke:#000000;stroke-width:0.6;" x="600.874118" xlink:href="#m330c79422f" y="512.64"/>
      </g>
     </g>
    </g>
    <g id="xtick_44">
     <g id="line2d_44">
      <g>
       <use style="stroke:#000000;stroke-width:0.6;" x="606.632281" xlink:href="#m330c79422f" y="512.64"/>
      </g>
     </g>
    </g>
    <g id="xtick_45">
     <g id="line2d_45">
      <g>
       <use style="stroke:#000000;stroke-width:0.6;" x="645.669632" xlink:href="#m330c79422f" y="512.64"/>
      </g>
     </g>
    </g>
    <g id="xtick_46">
     <g id="line2d_46">
      <g>
       <use style="stroke:#000000;stroke-width:0.6;" x="665.491962" xlink:href="#m330c79422f" y="512.64"/>
      </g>
     </g>
    </g>
    <g id="xtick_47">
     <g id="line2d_47">
      <g>
       <use style="stroke:#000000;stroke-width:0.6;" x="679.55613" xlink:href="#m330c79422f" y="512.64"/>
      </g>
     </g>
    </g>
    <g id="xtick_48">
     <g id="line2d_48">
      <g>
       <use style="stroke:#000000;stroke-width:0.6;" x="690.465146" xlink:href="#m330c79422f" y="512.64"/>
      </g>
     </g>
    </g>
    <g id="xtick_49">
     <g id="line2d_49">
      <g>
       <use style="stroke:#000000;stroke-width:0.6;" x="699.378461" xlink:href="#m330c79422f" y="512.64"/>
      </g>
     </g>
    </g>
    <g id="xtick_50">
     <g id="line2d_50">
      <g>
       <use style="stroke:#000000;stroke-width:0.6;" x="706.914561" xlink:href="#m330c79422f" y="512.64"/>
      </g>
     </g>
    </g>
    <g id="xtick_51">
     <g id="line2d_51">
      <g>
       <use style="stroke:#000000;stroke-width:0.6;" x="713.442628" xlink:href="#m330c79422f" y="512.64"/>
      </g>
     </g>
    </g>
    <g id="xtick_52">
     <g id="line2d_52">
      <g>
       <use style="stroke:#000000;stroke-width:0.6;" x="719.200791" xlink:href="#m330c79422f" y="512.64"/>
      </g>
     </g>
    </g>
    <g id="xtick_53">
     <g id="line2d_53">
      <g>
       <use style="stroke:#000000;stroke-width:0.6;" x="758.238142" xlink:href="#m330c79422f" y="512.64"/>
      </g>
     </g>
    </g>
    <g id="xtick_54">
     <g id="line2d_54">
      <g>
       <use style="stroke:#000000;stroke-width:0.6;" x="778.060473" xlink:href="#m330c79422f" y="512.64"/>
      </g>
     </g>
    </g>
    <g id="xtick_55">
     <g id="line2d_55">
      <g>
       <use style="stroke:#000000;stroke-width:0.6;" x="792.12464" xlink:href="#m330c79422f" y="512.64"/>
      </g>
     </g>
    </g>
    <g id="xtick_56">
     <g id="line2d_56">
      <g>
       <use style="stroke:#000000;stroke-width:0.6;" x="803.033656" xlink:href="#m330c79422f" y="512.64"/>
      </g>
     </g>
    </g>
    <g id="xtick_57">
     <g id="line2d_57">
      <g>
       <use style="stroke:#000000;stroke-width:0.6;" x="811.946971" xlink:href="#m330c79422f" y="512.64"/>
      </g>
     </g>
    </g>
    <g id="xtick_58">
     <g id="line2d_58">
      <g>
       <use style="stroke:#000000;stroke-width:0.6;" x="819.483072" xlink:href="#m330c79422f" y="512.64"/>
      </g>
     </g>
    </g>
    <g id="xtick_59">
     <g id="line2d_59">
      <g>
       <use style="stroke:#000000;stroke-width:0.6;" x="826.011139" xlink:href="#m330c79422f" y="512.64"/>
      </g>
     </g>
    </g>
    <g id="xtick_60">
     <g id="line2d_60">
      <g>
       <use style="stroke:#000000;stroke-width:0.6;" x="831.769302" xlink:href="#m330c79422f" y="512.64"/>
      </g>
     </g>
    </g>
    <g id="xtick_61">
     <g id="line2d_61">
      <g>
       <use style="stroke:#000000;stroke-width:0.6;" x="870.806653" xlink:href="#m330c79422f" y="512.64"/>
      </g>
     </g>
    </g>
    <g id="xtick_62">
     <g id="line2d_62">
      <g>
       <use style="stroke:#000000;stroke-width:0.6;" x="890.628984" xlink:href="#m330c79422f" y="512.64"/>
      </g>
     </g>
    </g>
    <g id="xtick_63">
     <g id="line2d_63">
      <g>
       <use style="stroke:#000000;stroke-width:0.6;" x="904.693151" xlink:href="#m330c79422f" y="512.64"/>
      </g>
     </g>
    </g>
    <g id="text_8">
     <!-- degree -->
     <g transform="translate(499.078906 540.916563)scale(0.1 -0.1)">
      <defs>
       <path d="M 2906 2969 
L 2906 4863 
L 3481 4863 
L 3481 0 
L 2906 0 
L 2906 525 
Q 2725 213 2448 61 
Q 2172 -91 1784 -91 
Q 1150 -91 751 415 
Q 353 922 353 1747 
Q 353 2572 751 3078 
Q 1150 3584 1784 3584 
Q 2172 3584 2448 3432 
Q 2725 3281 2906 2969 
z
M 947 1747 
Q 947 1113 1208 752 
Q 1469 391 1925 391 
Q 2381 391 2643 752 
Q 2906 1113 2906 1747 
Q 2906 2381 2643 2742 
Q 2381 3103 1925 3103 
Q 1469 3103 1208 2742 
Q 947 2381 947 1747 
z
" id="DejaVuSans-64" transform="scale(0.015625)"/>
       <path d="M 3597 1894 
L 3597 1613 
L 953 1613 
Q 991 1019 1311 708 
Q 1631 397 2203 397 
Q 2534 397 2845 478 
Q 3156 559 3463 722 
L 3463 178 
Q 3153 47 2828 -22 
Q 2503 -91 2169 -91 
Q 1331 -91 842 396 
Q 353 884 353 1716 
Q 353 2575 817 3079 
Q 1281 3584 2069 3584 
Q 2775 3584 3186 3129 
Q 3597 2675 3597 1894 
z
M 3022 2063 
Q 3016 2534 2758 2815 
Q 2500 3097 2075 3097 
Q 1594 3097 1305 2825 
Q 1016 2553 972 2059 
L 3022 2063 
z
" id="DejaVuSans-65" transform="scale(0.015625)"/>
       <path d="M 2906 1791 
Q 2906 2416 2648 2759 
Q 2391 3103 1925 3103 
Q 1463 3103 1205 2759 
Q 947 2416 947 1791 
Q 947 1169 1205 825 
Q 1463 481 1925 481 
Q 2391 481 2648 825 
Q 2906 1169 2906 1791 
z
M 3481 434 
Q 3481 -459 3084 -895 
Q 2688 -1331 1869 -1331 
Q 1566 -1331 1297 -1286 
Q 1028 -1241 775 -1147 
L 775 -588 
Q 1028 -725 1275 -790 
Q 1522 -856 1778 -856 
Q 2344 -856 2625 -561 
Q 2906 -266 2906 331 
L 2906 616 
Q 2728 306 2450 153 
Q 2172 0 1784 0 
Q 1141 0 747 490 
Q 353 981 353 1791 
Q 353 2603 747 3093 
Q 1141 3584 1784 3584 
Q 2172 3584 2450 3431 
Q 2728 3278 2906 2969 
L 2906 3500 
L 3481 3500 
L 3481 434 
z
" id="DejaVuSans-67" transform="scale(0.015625)"/>
       <path d="M 2631 2963 
Q 2534 3019 2420 3045 
Q 2306 3072 2169 3072 
Q 1681 3072 1420 2755 
Q 1159 2438 1159 1844 
L 1159 0 
L 581 0 
L 581 3500 
L 1159 3500 
L 1159 2956 
Q 1341 3275 1631 3429 
Q 1922 3584 2338 3584 
Q 2397 3584 2469 3576 
Q 2541 3569 2628 3553 
L 2631 2963 
z
" id="DejaVuSans-72" transform="scale(0.015625)"/>
      </defs>
      <use xlink:href="#DejaVuSans-64"/>
      <use x="63.476562" xlink:href="#DejaVuSans-65"/>
      <use x="125" xlink:href="#DejaVuSans-67"/>
      <use x="188.476562" xlink:href="#DejaVuSans-72"/>
      <use x="227.339844" xlink:href="#DejaVuSans-65"/>
      <use x="288.863281" xlink:href="#DejaVuSans-65"/>
     </g>
    </g>
   </g>
   <g id="matplotlib.axis_2">
    <g id="ytick_1">
     <g id="line2d_64">
      <defs>
       <path d="M 0 0 
L -3.5 0 
" id="m537fbeba7f" style="stroke:#000000;stroke-width:0.8;"/>
      </defs>
      <g>
       <use style="stroke:#000000;stroke-width:0.8;" x="126" xlink:href="#m537fbeba7f" y="492.48"/>
      </g>
     </g>
     <g id="text_9">
      <!-- $\mathdefault{10^{0}}$ -->
      <g transform="translate(101.4 496.279219)scale(0.1 -0.1)">
       <use transform="translate(0 0.765625)" xlink:href="#DejaVuSans-31"/>
       <use transform="translate(63.623047 0.765625)" xlink:href="#DejaVuSans-30"/>
       <use transform="translate(128.203125 39.046875)scale(0.7)" xlink:href="#DejaVuSans-30"/>
      </g>
     </g>
    </g>
    <g id="ytick_2">
     <g id="line2d_65">
      <g>
       <use style="stroke:#000000;stroke-width:0.8;" x="126" xlink:href="#m537fbeba7f" y="383.476683"/>
      </g>
     </g>
     <g id="text_10">
      <!-- $\mathdefault{10^{1}}$ -->
      <g transform="translate(101.4 387.275902)scale(0.1 -0.1)">
       <use transform="translate(0 0.684375)" xlink:href="#DejaVuSans-31"/>
       <use transform="translate(63.623047 0.684375)" xlink:href="#DejaVuSans-30"/>
       <use transform="translate(128.203125 38.965625)scale(0.7)" xlink:href="#DejaVuSans-31"/>
      </g>
     </g>
    </g>
    <g id="ytick_3">
     <g id="line2d_66">
      <g>
       <use style="stroke:#000000;stroke-width:0.8;" x="126" xlink:href="#m537fbeba7f" y="274.473366"/>
      </g>
     </g>
     <g id="text_11">
      <!-- $\mathdefault{10^{2}}$ -->
      <g transform="translate(101.4 278.272585)scale(0.1 -0.1)">
       <use transform="translate(0 0.765625)" xlink:href="#DejaVuSans-31"/>
       <use transform="translate(63.623047 0.765625)" xlink:href="#DejaVuSans-30"/>
       <use transform="translate(128.203125 39.046875)scale(0.7)" xlink:href="#DejaVuSans-32"/>
      </g>
     </g>
    </g>
    <g id="ytick_4">
     <g id="line2d_67">
      <g>
       <use style="stroke:#000000;stroke-width:0.8;" x="126" xlink:href="#m537fbeba7f" y="165.470049"/>
      </g>
     </g>
     <g id="text_12">
      <!-- $\mathdefault{10^{3}}$ -->
      <g transform="translate(101.4 169.269268)scale(0.1 -0.1)">
       <use transform="translate(0 0.765625)" xlink:href="#DejaVuSans-31"/>
       <use transform="translate(63.623047 0.765625)" xlink:href="#DejaVuSans-30"/>
       <use transform="translate(128.203125 39.046875)scale(0.7)" xlink:href="#DejaVuSans-33"/>
      </g>
     </g>
    </g>
    <g id="ytick_5">
     <g id="line2d_68">
      <defs>
       <path d="M 0 0 
L -2 0 
" id="mbe4354571d" style="stroke:#000000;stroke-width:0.6;"/>
      </defs>
      <g>
       <use style="stroke:#000000;stroke-width:0.6;" x="126" xlink:href="#mbe4354571d" y="509.364827"/>
      </g>
     </g>
    </g>
    <g id="ytick_6">
     <g id="line2d_69">
      <g>
       <use style="stroke:#000000;stroke-width:0.6;" x="126" xlink:href="#mbe4354571d" y="503.043513"/>
      </g>
     </g>
    </g>
    <g id="ytick_7">
     <g id="line2d_70">
      <g>
       <use style="stroke:#000000;stroke-width:0.6;" x="126" xlink:href="#mbe4354571d" y="497.467718"/>
      </g>
     </g>
    </g>
    <g id="ytick_8">
     <g id="line2d_71">
      <g>
       <use style="stroke:#000000;stroke-width:0.6;" x="126" xlink:href="#mbe4354571d" y="459.666732"/>
      </g>
     </g>
    </g>
    <g id="ytick_9">
     <g id="line2d_72">
      <g>
       <use style="stroke:#000000;stroke-width:0.6;" x="126" xlink:href="#mbe4354571d" y="440.472201"/>
      </g>
     </g>
    </g>
    <g id="ytick_10">
     <g id="line2d_73">
      <g>
       <use style="stroke:#000000;stroke-width:0.6;" x="126" xlink:href="#mbe4354571d" y="426.853464"/>
      </g>
     </g>
    </g>
    <g id="ytick_11">
     <g id="line2d_74">
      <g>
       <use style="stroke:#000000;stroke-width:0.6;" x="126" xlink:href="#mbe4354571d" y="416.289951"/>
      </g>
     </g>
    </g>
    <g id="ytick_12">
     <g id="line2d_75">
      <g>
       <use style="stroke:#000000;stroke-width:0.6;" x="126" xlink:href="#mbe4354571d" y="407.658933"/>
      </g>
     </g>
    </g>
    <g id="ytick_13">
     <g id="line2d_76">
      <g>
       <use style="stroke:#000000;stroke-width:0.6;" x="126" xlink:href="#mbe4354571d" y="400.36151"/>
      </g>
     </g>
    </g>
    <g id="ytick_14">
     <g id="line2d_77">
      <g>
       <use style="stroke:#000000;stroke-width:0.6;" x="126" xlink:href="#mbe4354571d" y="394.040196"/>
      </g>
     </g>
    </g>
    <g id="ytick_15">
     <g id="line2d_78">
      <g>
       <use style="stroke:#000000;stroke-width:0.6;" x="126" xlink:href="#mbe4354571d" y="388.464401"/>
      </g>
     </g>
    </g>
    <g id="ytick_16">
     <g id="line2d_79">
      <g>
       <use style="stroke:#000000;stroke-width:0.6;" x="126" xlink:href="#mbe4354571d" y="350.663415"/>
      </g>
     </g>
    </g>
    <g id="ytick_17">
     <g id="line2d_80">
      <g>
       <use style="stroke:#000000;stroke-width:0.6;" x="126" xlink:href="#mbe4354571d" y="331.468884"/>
      </g>
     </g>
    </g>
    <g id="ytick_18">
     <g id="line2d_81">
      <g>
       <use style="stroke:#000000;stroke-width:0.6;" x="126" xlink:href="#mbe4354571d" y="317.850147"/>
      </g>
     </g>
    </g>
    <g id="ytick_19">
     <g id="line2d_82">
      <g>
       <use style="stroke:#000000;stroke-width:0.6;" x="126" xlink:href="#mbe4354571d" y="307.286634"/>
      </g>
     </g>
    </g>
    <g id="ytick_20">
     <g id="line2d_83">
      <g>
       <use style="stroke:#000000;stroke-width:0.6;" x="126" xlink:href="#mbe4354571d" y="298.655616"/>
      </g>
     </g>
    </g>
    <g id="ytick_21">
     <g id="line2d_84">
      <g>
       <use style="stroke:#000000;stroke-width:0.6;" x="126" xlink:href="#mbe4354571d" y="291.358193"/>
      </g>
     </g>
    </g>
    <g id="ytick_22">
     <g id="line2d_85">
      <g>
       <use style="stroke:#000000;stroke-width:0.6;" x="126" xlink:href="#mbe4354571d" y="285.036879"/>
      </g>
     </g>
    </g>
    <g id="ytick_23">
     <g id="line2d_86">
      <g>
       <use style="stroke:#000000;stroke-width:0.6;" x="126" xlink:href="#mbe4354571d" y="279.461084"/>
      </g>
     </g>
    </g>
    <g id="ytick_24">
     <g id="line2d_87">
      <g>
       <use style="stroke:#000000;stroke-width:0.6;" x="126" xlink:href="#mbe4354571d" y="241.660098"/>
      </g>
     </g>
    </g>
    <g id="ytick_25">
     <g id="line2d_88">
      <g>
       <use style="stroke:#000000;stroke-width:0.6;" x="126" xlink:href="#mbe4354571d" y="222.465567"/>
      </g>
     </g>
    </g>
    <g id="ytick_26">
     <g id="line2d_89">
      <g>
       <use style="stroke:#000000;stroke-width:0.6;" x="126" xlink:href="#mbe4354571d" y="208.84683"/>
      </g>
     </g>
    </g>
    <g id="ytick_27">
     <g id="line2d_90">
      <g>
       <use style="stroke:#000000;stroke-width:0.6;" x="126" xlink:href="#mbe4354571d" y="198.283317"/>
      </g>
     </g>
    </g>
    <g id="ytick_28">
     <g id="line2d_91">
      <g>
       <use style="stroke:#000000;stroke-width:0.6;" x="126" xlink:href="#mbe4354571d" y="189.652299"/>
      </g>
     </g>
    </g>
    <g id="ytick_29">
     <g id="line2d_92">
      <g>
       <use style="stroke:#000000;stroke-width:0.6;" x="126" xlink:href="#mbe4354571d" y="182.354876"/>
      </g>
     </g>
    </g>
    <g id="ytick_30">
     <g id="line2d_93">
      <g>
       <use style="stroke:#000000;stroke-width:0.6;" x="126" xlink:href="#mbe4354571d" y="176.033562"/>
      </g>
     </g>
    </g>
    <g id="ytick_31">
     <g id="line2d_94">
      <g>
       <use style="stroke:#000000;stroke-width:0.6;" x="126" xlink:href="#mbe4354571d" y="170.457767"/>
      </g>
     </g>
    </g>
    <g id="ytick_32">
     <g id="line2d_95">
      <g>
       <use style="stroke:#000000;stroke-width:0.6;" x="126" xlink:href="#mbe4354571d" y="132.656781"/>
      </g>
     </g>
    </g>
    <g id="ytick_33">
     <g id="line2d_96">
      <g>
       <use style="stroke:#000000;stroke-width:0.6;" x="126" xlink:href="#mbe4354571d" y="113.46225"/>
      </g>
     </g>
    </g>
    <g id="ytick_34">
     <g id="line2d_97">
      <g>
       <use style="stroke:#000000;stroke-width:0.6;" x="126" xlink:href="#mbe4354571d" y="99.843513"/>
      </g>
     </g>
    </g>
    <g id="ytick_35">
     <g id="line2d_98">
      <g>
       <use style="stroke:#000000;stroke-width:0.6;" x="126" xlink:href="#mbe4354571d" y="89.28"/>
      </g>
     </g>
    </g>
    <g id="ytick_36">
     <g id="line2d_99">
      <g>
       <use style="stroke:#000000;stroke-width:0.6;" x="126" xlink:href="#mbe4354571d" y="80.648982"/>
      </g>
     </g>
    </g>
    <g id="ytick_37">
     <g id="line2d_100">
      <g>
       <use style="stroke:#000000;stroke-width:0.6;" x="126" xlink:href="#mbe4354571d" y="73.351559"/>
      </g>
     </g>
    </g>
    <g id="text_13">
     <!-- number of nodes -->
     <g transform="translate(95.320312 333.475312)rotate(-90)scale(0.1 -0.1)">
      <defs>
       <path d="M 3513 2113 
L 3513 0 
L 2938 0 
L 2938 2094 
Q 2938 2591 2744 2837 
Q 2550 3084 2163 3084 
Q 1697 3084 1428 2787 
Q 1159 2491 1159 1978 
L 1159 0 
L 581 0 
L 581 3500 
L 1159 3500 
L 1159 2956 
Q 1366 3272 1645 3428 
Q 1925 3584 2291 3584 
Q 2894 3584 3203 3211 
Q 3513 2838 3513 2113 
z
" id="DejaVuSans-6e" transform="scale(0.015625)"/>
       <path d="M 544 1381 
L 544 3500 
L 1119 3500 
L 1119 1403 
Q 1119 906 1312 657 
Q 1506 409 1894 409 
Q 2359 409 2629 706 
Q 2900 1003 2900 1516 
L 2900 3500 
L 3475 3500 
L 3475 0 
L 2900 0 
L 2900 538 
Q 2691 219 2414 64 
Q 2138 -91 1772 -91 
Q 1169 -91 856 284 
Q 544 659 544 1381 
z
M 1991 3584 
L 1991 3584 
z
" id="DejaVuSans-75" transform="scale(0.015625)"/>
       <path d="M 3328 2828 
Q 3544 3216 3844 3400 
Q 4144 3584 4550 3584 
Q 5097 3584 5394 3201 
Q 5691 2819 5691 2113 
L 5691 0 
L 5113 0 
L 5113 2094 
Q 5113 2597 4934 2840 
Q 4756 3084 4391 3084 
Q 3944 3084 3684 2787 
Q 3425 2491 3425 1978 
L 3425 0 
L 2847 0 
L 2847 2094 
Q 2847 2600 2669 2842 
Q 2491 3084 2119 3084 
Q 1678 3084 1418 2786 
Q 1159 2488 1159 1978 
L 1159 0 
L 581 0 
L 581 3500 
L 1159 3500 
L 1159 2956 
Q 1356 3278 1631 3431 
Q 1906 3584 2284 3584 
Q 2666 3584 2933 3390 
Q 3200 3197 3328 2828 
z
" id="DejaVuSans-6d" transform="scale(0.015625)"/>
       <path d="M 3116 1747 
Q 3116 2381 2855 2742 
Q 2594 3103 2138 3103 
Q 1681 3103 1420 2742 
Q 1159 2381 1159 1747 
Q 1159 1113 1420 752 
Q 1681 391 2138 391 
Q 2594 391 2855 752 
Q 3116 1113 3116 1747 
z
M 1159 2969 
Q 1341 3281 1617 3432 
Q 1894 3584 2278 3584 
Q 2916 3584 3314 3078 
Q 3713 2572 3713 1747 
Q 3713 922 3314 415 
Q 2916 -91 2278 -91 
Q 1894 -91 1617 61 
Q 1341 213 1159 525 
L 1159 0 
L 581 0 
L 581 4863 
L 1159 4863 
L 1159 2969 
z
" id="DejaVuSans-62" transform="scale(0.015625)"/>
       <path id="DejaVuSans-20" transform="scale(0.015625)"/>
       <path d="M 1959 3097 
Q 1497 3097 1228 2736 
Q 959 2375 959 1747 
Q 959 1119 1226 758 
Q 1494 397 1959 397 
Q 2419 397 2687 759 
Q 2956 1122 2956 1747 
Q 2956 2369 2687 2733 
Q 2419 3097 1959 3097 
z
M 1959 3584 
Q 2709 3584 3137 3096 
Q 3566 2609 3566 1747 
Q 3566 888 3137 398 
Q 2709 -91 1959 -91 
Q 1206 -91 779 398 
Q 353 888 353 1747 
Q 353 2609 779 3096 
Q 1206 3584 1959 3584 
z
" id="DejaVuSans-6f" transform="scale(0.015625)"/>
       <path d="M 2375 4863 
L 2375 4384 
L 1825 4384 
Q 1516 4384 1395 4259 
Q 1275 4134 1275 3809 
L 1275 3500 
L 2222 3500 
L 2222 3053 
L 1275 3053 
L 1275 0 
L 697 0 
L 697 3053 
L 147 3053 
L 147 3500 
L 697 3500 
L 697 3744 
Q 697 4328 969 4595 
Q 1241 4863 1831 4863 
L 2375 4863 
z
" id="DejaVuSans-66" transform="scale(0.015625)"/>
       <path d="M 2834 3397 
L 2834 2853 
Q 2591 2978 2328 3040 
Q 2066 3103 1784 3103 
Q 1356 3103 1142 2972 
Q 928 2841 928 2578 
Q 928 2378 1081 2264 
Q 1234 2150 1697 2047 
L 1894 2003 
Q 2506 1872 2764 1633 
Q 3022 1394 3022 966 
Q 3022 478 2636 193 
Q 2250 -91 1575 -91 
Q 1294 -91 989 -36 
Q 684 19 347 128 
L 347 722 
Q 666 556 975 473 
Q 1284 391 1588 391 
Q 1994 391 2212 530 
Q 2431 669 2431 922 
Q 2431 1156 2273 1281 
Q 2116 1406 1581 1522 
L 1381 1569 
Q 847 1681 609 1914 
Q 372 2147 372 2553 
Q 372 3047 722 3315 
Q 1072 3584 1716 3584 
Q 2034 3584 2315 3537 
Q 2597 3491 2834 3397 
z
" id="DejaVuSans-73" transform="scale(0.015625)"/>
      </defs>
      <use xlink:href="#DejaVuSans-6e"/>
      <use x="63.378906" xlink:href="#DejaVuSans-75"/>
      <use x="126.757812" xlink:href="#DejaVuSans-6d"/>
      <use x="224.169922" xlink:href="#DejaVuSans-62"/>
      <use x="287.646484" xlink:href="#DejaVuSans-65"/>
      <use x="349.169922" xlink:href="#DejaVuSans-72"/>
      <use x="390.283203" xlink:href="#DejaVuSans-20"/>
      <use x="422.070312" xlink:href="#DejaVuSans-6f"/>
      <use x="483.251953" xlink:href="#DejaVuSans-66"/>
      <use x="518.457031" xlink:href="#DejaVuSans-20"/>
      <use x="550.244141" xlink:href="#DejaVuSans-6e"/>
      <use x="613.623047" xlink:href="#DejaVuSans-6f"/>
      <use x="674.804688" xlink:href="#DejaVuSans-64"/>
      <use x="738.28125" xlink:href="#DejaVuSans-65"/>
      <use x="799.804688" xlink:href="#DejaVuSans-73"/>
     </g>
    </g>
   </g>
   <g id="line2d_101">
    <path clip-path="url(#pa676dd4dc8)" d="M -1 89.28 
L 420.287558 89.336842 
L 420.776441 90.839199 
L 421.019061 90.848985 
L 421.500719 91.608643 
L 421.977678 91.748083 
L 422.450028 92.068351 
L 422.684503 92.654419 
L 422.917858 92.817378 
L 423.150105 92.827582 
L 424.520883 93.474882 
L 424.745656 93.495577 
L 424.969399 93.744624 
L 425.413837 94.542029 
L 426.07301 94.796657 
L 426.723413 95.51483 
L 426.938305 96.233099 
L 427.152256 96.276982 
L 427.577371 96.751319 
L 427.78855 96.762407 
L 428.416669 97.252861 
L 428.624261 97.264067 
L 429.036819 97.63536 
L 429.649202 98.020974 
L 429.851636 98.032363 
L 430.453959 98.663031 
L 430.653095 98.697674 
L 430.851423 98.882866 
L 431.04895 99.843513 
L 431.636788 100.0927 
L 432.024789 100.271498 
L 432.217641 100.331247 
L 432.981529 101.261042 
L 433.359044 101.419838 
L 433.546714 101.579169 
L 433.733665 102.122456 
L 433.919905 102.284173 
L 434.65785 102.433942 
L 435.022686 102.911362 
L 435.38482 103.050466 
L 435.564886 103.355392 
L 435.744292 103.431931 
L 436.278591 103.958288 
L 436.807114 104.02288 
L 437.156314 104.230169 
L 437.329984 104.726149 
L 437.503038 104.739271 
L 437.847321 105.240642 
L 438.35924 105.36017 
L 438.528696 105.841321 
L 438.865855 105.868196 
L 439.033567 106.056746 
L 439.367274 106.191886 
L 439.863602 106.572344 
L 440.191709 106.969639 
L 440.679779 107.328693 
L 441.002472 107.564939 
L 441.800008 108.012862 
L 441.957966 108.337445 
L 442.272359 109.122767 
L 442.584742 109.223658 
L 443.662629 110.82307 
L 444.117404 111.017483 
L 444.26806 111.032471 
L 444.567986 111.303069 
L 444.866084 112.293313 
L 445.162375 112.509334 
L 445.456881 112.602218 
L 445.749624 113.273269 
L 446.473902 114.306057 
L 446.617479 114.531484 
L 446.760636 114.547627 
L 447.610881 115.230655 
L 448.030522 115.411184 
L 448.722017 115.790893 
L 449.132267 116.307542 
L 449.403868 116.341068 
L 449.673967 116.762166 
L 449.808459 116.779088 
L 450.076339 117.204119 
L 450.20973 117.392348 
L 450.475426 118.187698 
L 450.739685 118.520152 
L 451.002524 118.537715 
L 451.524 118.819604 
L 452.039971 119.120961 
L 452.423408 119.729493 
L 452.550554 119.855756 
L 452.80386 120.236578 
L 452.930022 120.309464 
L 453.181375 120.989034 
L 453.927769 121.453789 
L 454.174056 121.79126 
L 454.419109 121.84774 
L 454.662939 122.340076 
L 455.026419 122.4926 
L 455.982692 122.953142 
L 456.453904 123.691623 
L 456.571001 123.711213 
L 456.804356 124.243234 
L 457.036603 124.821404 
L 457.152314 124.861539 
L 457.382918 125.264774 
L 457.726797 125.794168 
L 458.068273 125.978808 
L 458.407382 126.081698 
L 458.632154 126.412456 
L 458.744154 126.474731 
L 459.078622 128.015909 
L 459.410817 128.274125 
L 459.631033 128.533758 
L 459.74077 128.598889 
L 460.068511 129.299255 
L 460.177272 129.343374 
L 460.50211 129.742305 
L 460.717475 129.831415 
L 461.038755 130.234498 
L 461.251774 130.70914 
L 461.463869 130.754594 
L 461.675049 131.165649 
L 461.780297 131.165649 
L 461.990117 131.326472 
L 462.199039 131.372522 
L 462.923318 132.209178 
L 463.128299 132.326559 
L 463.434167 132.775278 
L 463.738134 132.87029 
L 464.040223 133.468472 
L 464.737922 134.416997 
L 464.935449 134.737443 
L 465.033914 134.737443 
L 465.814575 135.737259 
L 465.911287 135.737259 
L 466.20028 136.194159 
L 466.487575 136.475562 
L 466.678172 137.121405 
L 466.773192 137.173455 
L 466.96268 137.486963 
L 467.713372 137.881791 
L 467.991937 138.493662 
L 468.176768 138.547243 
L 468.452712 139.032229 
L 468.635813 139.167833 
L 469.54117 140.657662 
L 469.720246 140.798011 
L 469.987637 141.278332 
L 470.076444 141.306739 
L 470.253574 141.849728 
L 471.389537 142.866572 
L 471.561981 143.24989 
L 472.245739 144.116337 
L 472.33054 144.116337 
L 472.499702 144.692731 
L 472.668281 144.784385 
L 473.087203 145.369021 
L 473.667728 145.929628 
L 473.914429 146.117982 
L 473.996387 146.149447 
L 474.241439 146.43358 
L 474.322851 146.43358 
L 474.566277 146.910957 
L 474.969312 147.522629 
L 475.607336 148.803486 
L 475.844464 149.104055 
L 476.080448 149.37284 
L 476.315298 149.983243 
L 476.393332 150.017387 
L 476.626687 150.774835 
L 476.936105 150.983533 
L 477.16689 151.544601 
L 477.396591 151.721307 
L 477.777043 152.219623 
L 478.154558 152.72324 
L 478.304751 153.159217 
L 478.603761 153.378721 
L 479.48997 154.830853 
L 479.636122 155.210483 
L 480.071976 155.43973 
L 480.288454 155.708597 
L 480.432242 155.901583 
L 480.575608 156.563685 
L 481.356695 157.036691 
L 481.56757 157.51447 
L 481.70765 158.118555 
L 482.194793 159.184252 
L 482.67713 160.062873 
L 482.814071 160.105121 
L 482.950629 160.401922 
L 483.086807 160.487065 
L 483.222607 160.700595 
L 483.425602 161.260323 
L 483.49308 161.303655 
L 483.627758 161.60809 
L 484.029578 162.222898 
L 484.361924 162.80103 
L 485.085228 163.341031 
L 485.540002 164.532602 
L 485.733618 164.811892 
L 485.797986 164.858601 
L 485.92647 165.045899 
L 486.054616 165.092839 
L 486.627155 165.754942 
L 487.067873 166.089498 
L 487.317939 166.863195 
L 487.504653 167.107592 
L 487.752501 167.304022 
L 487.875955 167.353257 
L 488.060554 167.451881 
L 488.244459 167.50127 
L 488.549437 167.798692 
L 488.731515 167.89825 
L 488.912918 168.248359 
L 489.213767 168.348868 
L 489.98742 169.007427 
L 490.223025 169.571916 
L 490.398986 169.675278 
L 490.63262 169.986723 
L 491.15425 170.510396 
L 491.326898 170.827403 
L 491.498937 170.986706 
L 491.727386 171.414154 
L 492.574684 172.280806 
L 492.742396 172.885968 
L 493.020643 173.219347 
L 493.076103 173.219347 
L 493.242106 173.38692 
L 493.352462 173.44291 
L 493.627268 174.120007 
L 493.791414 174.864625 
L 493.900538 174.864625 
L 494.06377 175.096115 
L 494.11806 175.096115 
L 494.280568 175.270478 
L 494.442538 175.445485 
L 494.550221 175.503965 
L 494.978595 175.856371 
L 495.138272 175.915361 
L 495.824244 176.688997 
L 495.981188 177.232095 
L 496.085538 177.292826 
L 496.758436 178.151338 
L 496.912414 178.524093 
L 496.963632 178.524093 
L 497.116966 178.836979 
L 498.177044 180.174163 
L 498.376383 180.75901 
L 498.62442 181.152962 
L 498.96957 181.483778 
L 499.018679 181.483778 
L 499.652646 182.899015 
L 500.278496 183.866572 
L 500.421792 184.216977 
L 501.179025 185.500357 
L 501.366515 186.008998 
L 501.459991 186.08211 
L 502.613605 187.719804 
L 502.659188 187.719804 
L 502.931798 188.947478 
L 503.292929 189.416191 
L 503.382796 189.494762 
L 503.562037 189.810361 
L 503.740623 190.367771 
L 503.829672 190.44794 
L 504.972786 192.581452 
L 505.146301 193.087762 
L 505.448479 193.857527 
L 505.534474 193.943835 
L 507.471715 198.094337 
L 507.636598 198.663556 
L 507.923813 199.530429 
L 508.005565 199.530429 
L 508.290626 200.512612 
L 508.412288 200.61196 
L 509.25555 202.436837 
L 509.295345 202.436837 
L 509.493834 202.956486 
L 509.573005 203.061103 
L 509.809751 203.376351 
L 509.927695 203.481902 
L 510.084513 203.906475 
L 510.162733 204.013216 
L 510.3188 204.33489 
L 510.706801 205.094074 
L 510.822604 205.20353 
L 510.976581 205.533423 
L 511.244881 205.976888 
L 511.321268 205.976888 
L 511.549717 206.763091 
L 511.663542 206.763091 
L 511.852663 207.218282 
L 512.003436 208.258754 
L 512.452983 209.322608 
L 512.527507 209.322608 
L 512.824473 209.924135 
L 512.898433 209.924135 
L 513.266567 210.779324 
L 513.303228 210.779324 
L 513.522621 211.150617 
L 513.55909 211.150617 
L 514.67637 214.630189 
L 514.747584 214.630189 
L 515.454068 216.959957 
L 515.489126 216.959957 
L 515.803519 217.81039 
L 515.838327 217.81039 
L 516.254101 219.410343 
L 516.391911 220.457389 
L 516.495014 220.457389 
L 517.041253 222.465567 
L 517.109105 222.465567 
L 517.278326 223.261208 
L 517.446964 223.261208 
L 517.648563 223.745091 
L 517.682083 223.745091 
L 517.81593 223.907491 
L 517.849335 223.907491 
L 517.982727 224.398061 
L 518.049286 224.398061 
L 518.215289 224.727955 
L 518.281533 224.727955 
L 518.512682 225.39472 
L 518.545614 225.39472 
L 518.77552 226.07101 
L 518.808276 226.07101 
L 518.93908 226.584645 
L 518.971726 226.584645 
L 519.199642 227.278277 
L 519.264566 227.278277 
L 519.748768 229.422321 
L 519.780879 229.422321 
L 520.132707 230.907605 
L 520.196404 230.907605 
L 520.387001 231.476824 
L 520.450368 231.476824 
L 520.639979 232.052972 
L 520.671509 232.052972 
L 520.891654 232.832241 
L 520.985699 232.832241 
L 521.235606 233.824721 
L 521.266755 233.824721 
L 521.453231 234.430352 
L 521.484242 234.430352 
L 521.669892 235.043832 
L 521.731619 235.043832 
L 521.885597 235.45728 
L 521.916335 235.45728 
L 522.192105 236.719743 
L 522.253177 236.719743 
L 522.496704 237.798139 
L 522.587714 237.798139 
L 522.708799 238.016798 
L 522.769229 238.016798 
L 522.919978 238.901675 
L 522.950072 238.901675 
L 523.19016 240.03155 
L 523.220089 240.03155 
L 523.458858 241.189054 
L 523.518368 241.189054 
L 523.696466 241.897389 
L 523.726086 241.897389 
L 523.844388 242.135876 
L 523.903431 242.135876 
L 524.021304 242.616485 
L 524.050728 242.616485 
L 524.197583 243.102023 
L 524.343998 243.102023 
L 524.489975 243.592592 
L 524.548244 243.592592 
L 524.751642 244.589251 
L 524.780629 244.589251 
L 524.954196 246.124722 
L 525.069566 246.124722 
L 525.299491 247.443457 
L 525.328156 247.443457 
L 525.642365 249.353669 
L 525.699278 249.353669 
L 526.039369 251.635534 
L 526.067603 251.635534 
L 526.208531 252.223611 
L 526.236668 252.223611 
L 526.489174 253.72658 
L 526.54511 253.72658 
L 526.740383 254.651812 
L 526.823833 254.651812 
L 527.128604 256.883718 
L 527.183813 256.883718 
L 527.404029 258.207988 
L 527.431487 258.207988 
L 527.677912 259.917182 
L 527.732505 259.917182 
L 527.923101 260.973126 
L 528.03168 260.973126 
L 528.248119 262.418721 
L 528.275106 262.418721 
L 528.517326 264.290092 
L 528.544165 264.290092 
L 528.731629 265.449486 
L 528.918377 265.449486 
L 529.236866 268.68764 
L 529.289746 268.68764 
L 529.553293 271.270437 
L 529.57957 271.270437 
L 529.763113 272.616675 
L 529.893794 272.616675 
L 530.050152 273.535919 
L 530.102161 273.535919 
L 530.23194 274.473366 
L 530.413055 275.915291 
L 530.438873 275.915291 
L 530.644934 277.908829 
L 530.721984 277.908829 
L 530.875719 278.93799 
L 530.901295 278.93799 
L 531.028973 279.461084 
L 531.054469 279.461084 
L 531.257957 281.613252 
L 531.283333 281.613252 
L 531.485872 283.867942 
L 531.561609 283.867942 
L 531.712731 285.036879 
L 531.83831 285.036879 
L 531.98858 286.235412 
L 532.01358 286.235412 
L 532.163314 287.46508 
L 532.436639 287.46508 
L 532.585084 288.727542 
L 532.609781 288.727542 
L 532.757702 290.024597 
L 532.80691 290.024597 
L 532.929713 290.686699 
L 532.978748 290.686699 
L 533.149984 292.73045 
L 533.296282 292.73045 
L 533.442144 294.143676 
L 533.514912 294.143676 
L 533.660124 295.600392 
L 533.684284 295.600392 
L 533.853071 297.873126 
L 533.901189 297.873126 
L 534.045259 299.451257 
L 534.093188 299.451257 
L 534.236695 301.083816 
L 534.379782 301.083816 
L 534.617332 306.349187 
L 534.664704 306.349187 
L 534.782934 307.286634 
L 535.995863 307.286634 
L 536.1339 309.219128 
L 536.156868 309.219128 
L 536.294451 311.233881 
L 536.431649 311.233881 
L 536.545686 312.274352 
L 536.568462 312.274352 
L 536.704893 314.42652 
L 536.818296 314.42652 
L 536.954033 316.68121 
L 537.06686 316.68121 
L 537.201909 319.04868 
L 537.269294 319.04868 
L 537.403786 321.54081 
L 537.493243 321.54081 
L 537.649399 324.171461 
L 537.693923 324.171461 
L 537.827254 325.543718 
L 537.871617 325.543718 
L 538.02657 328.41366 
L 538.092829 328.41366 
L 538.225078 329.916629 
L 538.269081 329.916629 
L 538.422782 333.073767 
L 538.597851 333.073767 
L 538.750524 336.456602 
L 538.772295 336.456602 
L 538.924425 340.099902 
L 538.946119 340.099902 
L 539.076082 342.032396 
L 539.162533 342.032396 
L 539.291923 344.047149 
L 539.377993 344.047149 
L 539.549681 350.663415 
L 539.763445 350.663415 
L 539.891257 353.091616 
L 539.976279 353.091616 
L 540.124714 358.356986 
L 540.188191 358.356986 
L 540.314898 361.226928 
L 540.357061 361.226928 
L 540.504345 367.548242 
L 540.693061 367.548242 
L 540.818469 371.05648 
L 540.964372 371.05648 
L 541.089086 374.845665 
L 541.192772 374.845665 
L 541.316905 378.964743 
L 541.399486 378.964743 
L 541.523096 383.476683 
L 541.56423 383.476683 
L 541.687425 388.464401 
L 541.789851 388.464401 
L 541.91248 394.040196 
L 541.932888 394.040196 
L 542.055159 400.36151 
L 542.11618 400.36151 
L 542.237993 407.658933 
L 542.420147 407.658933 
L 542.541206 416.289951 
L 542.742309 416.289951 
L 542.862574 426.853464 
L 543.002511 426.853464 
L 543.142048 459.666732 
L 543.301033 459.666732 
L 543.419934 492.48 
L 543.77491 492.48 
L 543.774925 577 
L 543.774925 577 
" style="fill:none;stroke:#1f77b4;stroke-linecap:square;stroke-width:1.5;"/>
   </g>
   <g id="patch_3">
    <path d="M 126 512.64 
L 126 69.12 
" style="fill:none;stroke:#000000;stroke-linecap:square;stroke-linejoin:miter;stroke-width:0.8;"/>
   </g>
   <g id="patch_4">
    <path d="M 907.2 512.64 
L 907.2 69.12 
" style="fill:none;stroke:#000000;stroke-linecap:square;stroke-linejoin:miter;stroke-width:0.8;"/>
   </g>
   <g id="patch_5">
    <path d="M 126 512.64 
L 907.2 512.64 
" style="fill:none;stroke:#000000;stroke-linecap:square;stroke-linejoin:miter;stroke-width:0.8;"/>
   </g>
   <g id="patch_6">
    <path d="M 126 69.12 
L 907.2 69.12 
" style="fill:none;stroke:#000000;stroke-linecap:square;stroke-linejoin:miter;stroke-width:0.8;"/>
   </g>
  </g>
 </g>
 <defs>
  <clipPath id="pa676dd4dc8">
   <rect height="443.52" width="781.2" x="126" y="69.12"/>
  </clipPath>
 </defs>
</svg>
